<svg id="svg" version="1.1" xmlns="http://www.w3.org/2000/svg" xmlns:xlink="http://www.w3.org/1999/xlink" width="400" height="400" viewBox="0, 0, 400,400"><g id="svgg"><path id="path0" d="M107.800 50.864 C 103.815 51.593,99.449 55.009,98.168 58.400 C 98.044 58.730,97.733 59.360,97.479 59.800 C 97.174 60.327,96.945 64.360,96.808 71.600 L 96.600 82.600 88.800 82.828 C 81.665 83.037,78.754 83.411,76.886 84.358 C 76.509 84.550,75.660 84.949,75.000 85.244 C 69.598 87.664,64.651 94.153,63.445 100.400 C 62.930 103.072,62.820 282.313,63.332 285.400 C 64.773 294.086,72.285 301.457,81.424 303.151 C 84.698 303.758,174.635 303.791,175.009 303.185 C 175.150 302.957,174.968 301.742,174.605 300.485 C 172.952 294.767,172.000 289.292,172.000 285.508 C 172.000 283.748,171.806 282.366,171.520 282.080 C 171.153 281.713,160.924 281.600,127.919 281.600 L 84.798 281.600 84.899 204.900 L 85.000 128.200 184.253 128.099 L 283.506 127.998 283.750 128.899 C 283.884 129.395,283.991 144.817,283.988 163.171 C 283.982 198.214,283.931 197.178,285.676 197.194 C 286.048 197.197,286.464 197.380,286.600 197.600 C 286.736 197.820,287.199 198.000,287.629 198.000 C 288.059 198.000,288.723 198.169,289.105 198.374 C 289.487 198.580,290.880 199.226,292.200 199.809 C 295.102 201.092,295.188 201.134,298.200 202.802 C 302.904 205.406,303.409 205.707,304.399 206.485 L 305.400 207.272 305.501 154.213 C 305.568 119.280,305.466 100.897,305.201 100.403 C 304.981 99.990,304.800 99.280,304.800 98.824 C 304.800 96.867,301.729 91.781,298.836 88.948 C 294.198 84.407,290.324 83.150,280.000 82.837 L 272.200 82.600 271.976 72.400 C 271.671 58.502,270.637 55.765,264.271 52.015 C 262.228 50.812,255.435 50.542,253.362 51.583 C 251.392 52.572,248.859 54.770,247.665 56.525 C 245.510 59.695,245.423 60.240,245.204 71.800 L 245.000 82.600 221.500 82.703 L 198.000 82.806 197.986 73.503 C 197.967 61.066,197.148 57.826,193.106 54.192 C 186.320 48.090,176.330 50.200,172.363 58.574 L 171.214 61.000 171.107 71.800 L 171.000 82.600 147.100 82.703 L 123.200 82.806 123.200 72.723 C 123.200 62.814,122.648 58.000,121.511 58.000 C 121.340 58.000,121.200 57.738,121.200 57.418 C 121.200 55.598,115.749 51.481,112.714 51.008 C 111.771 50.862,110.730 50.687,110.400 50.620 C 110.070 50.553,108.900 50.663,107.800 50.864 M113.343 60.357 C 115.591 62.305,115.600 62.393,115.600 82.800 C 115.600 100.656,115.560 101.711,114.823 103.155 C 112.995 106.738,108.610 107.324,105.947 104.341 L 104.800 103.056 104.800 82.795 L 104.800 62.533 106.100 61.081 C 108.151 58.789,111.183 58.486,113.343 60.357 M188.402 61.063 L 189.600 62.428 189.600 82.747 L 189.600 103.067 188.179 104.487 C 185.605 107.061,182.088 106.818,179.989 103.922 L 178.800 102.280 178.800 82.726 C 178.800 64.862,178.860 63.078,179.493 62.086 C 181.690 58.643,185.857 58.165,188.402 61.063 M262.484 60.917 C 264.024 62.609,264.063 63.246,263.925 84.274 L 263.800 103.148 262.623 104.377 C 259.675 107.453,255.067 106.494,253.367 102.451 C 252.376 100.094,252.545 64.467,253.557 62.484 C 255.484 58.709,259.786 57.953,262.484 60.917 M254.500 191.897 C 255.985 191.974,258.415 191.974,259.900 191.897 C 261.385 191.820,260.170 191.757,257.200 191.757 C 254.230 191.757,253.015 191.820,254.500 191.897 M248.000 207.445 C 243.491 208.272,240.713 208.851,239.600 209.196 C 239.050 209.366,237.520 209.834,236.200 210.235 C 234.880 210.636,233.629 211.107,233.420 211.282 C 233.211 211.457,232.811 211.600,232.531 211.600 C 231.792 211.600,227.892 213.393,222.743 216.098 C 222.218 216.374,221.223 217.005,220.533 217.500 C 219.842 217.995,219.162 218.400,219.021 218.400 C 218.881 218.400,218.549 218.578,218.283 218.796 C 218.017 219.014,216.450 220.192,214.800 221.413 C 205.389 228.377,195.903 240.688,192.002 251.000 C 191.836 251.440,191.480 252.340,191.212 253.000 C 189.603 256.958,188.302 262.129,187.225 268.846 C 186.673 272.285,186.677 284.660,187.231 287.776 C 188.469 294.741,189.313 298.331,190.033 299.695 C 190.235 300.077,190.400 300.655,190.400 300.981 C 190.400 301.307,190.695 302.254,191.055 303.086 C 191.416 303.919,191.854 304.960,192.028 305.400 C 192.433 306.421,195.491 312.703,196.183 313.934 C 197.247 315.828,197.343 315.809,202.468 312.754 C 205.180 311.137,208.059 309.469,208.865 309.049 C 210.401 308.247,210.428 307.487,208.987 305.600 C 207.402 303.524,204.184 295.254,203.227 290.800 C 202.967 289.590,202.585 287.832,202.377 286.894 C 201.860 284.554,201.901 272.397,202.437 269.424 C 203.189 265.249,204.713 259.639,205.263 259.020 C 205.448 258.811,205.600 258.404,205.600 258.115 C 205.600 256.424,210.539 247.682,213.783 243.632 C 219.577 236.397,231.054 227.776,237.400 225.891 C 237.840 225.760,239.010 225.349,240.000 224.977 C 247.793 222.053,260.598 221.164,268.800 222.978 C 270.450 223.343,272.340 223.745,273.000 223.871 C 273.660 223.997,274.380 224.233,274.600 224.395 C 274.820 224.557,275.515 224.813,276.144 224.964 C 278.380 225.499,284.767 228.551,287.296 230.294 C 288.339 231.012,289.330 231.600,289.500 231.600 C 289.669 231.600,290.256 232.005,290.804 232.500 C 291.352 232.995,292.463 233.895,293.273 234.500 C 298.506 238.407,305.742 247.504,308.465 253.600 C 308.907 254.590,309.613 256.132,310.034 257.026 C 310.455 257.921,310.800 258.945,310.800 259.303 C 310.800 259.660,310.959 260.051,311.154 260.171 C 311.349 260.292,311.606 260.887,311.726 261.495 C 311.845 262.103,312.246 263.680,312.616 265.000 C 313.803 269.233,314.701 278.600,314.225 281.775 L 313.939 283.678 312.470 283.467 C 311.661 283.351,310.010 283.048,308.800 282.793 C 303.782 281.737,301.443 284.171,303.324 288.492 C 303.637 289.211,304.385 291.060,304.986 292.600 C 305.586 294.140,306.224 295.760,306.403 296.200 C 306.582 296.640,307.389 298.800,308.197 301.000 C 309.543 304.668,310.354 306.652,311.259 308.495 C 311.446 308.877,311.600 309.437,311.600 309.741 C 311.600 310.687,313.133 312.294,314.237 312.505 C 316.007 312.843,317.007 312.313,320.095 309.400 C 337.370 293.101,337.494 292.962,336.678 290.802 C 336.065 289.177,334.787 288.537,330.400 287.659 C 329.060 287.391,329.004 287.310,329.092 285.789 C 329.653 276.094,328.917 266.166,327.223 260.591 C 326.990 259.826,326.606 258.525,326.370 257.700 C 325.026 253.010,322.499 247.254,319.267 241.514 C 317.220 237.880,311.799 230.945,308.390 227.600 C 304.324 223.609,297.807 218.400,296.880 218.400 C 296.653 218.400,296.407 218.247,296.333 218.060 C 296.037 217.303,284.761 211.600,283.561 211.600 C 283.216 211.600,282.810 211.477,282.659 211.326 C 281.790 210.456,276.052 208.953,268.460 207.606 C 263.067 206.648,252.787 206.568,248.000 207.445 M256.553 235.800 C 256.553 238.440,256.618 239.468,256.697 238.084 C 256.775 236.701,256.774 234.541,256.695 233.284 C 256.616 232.028,256.552 233.160,256.553 235.800 M256.501 242.600 C 256.505 243.480,256.587 243.793,256.683 243.295 C 256.779 242.798,256.775 242.078,256.675 241.695 C 256.575 241.313,256.496 241.720,256.501 242.600 M256.559 317.600 C 256.559 320.790,256.621 322.095,256.697 320.500 C 256.773 318.905,256.773 316.295,256.697 314.700 C 256.621 313.105,256.559 314.410,256.559 317.600 M211.905 327.483 C 212.402 327.579,213.122 327.575,213.505 327.475 C 213.887 327.375,213.480 327.296,212.600 327.301 C 211.720 327.305,211.407 327.387,211.905 327.483 M289.693 338.000 C 289.693 338.770,289.775 339.085,289.876 338.700 C 289.976 338.315,289.976 337.685,289.876 337.300 C 289.775 336.915,289.693 337.230,289.693 338.000 " stroke="none" fill="#224867" fill-rule="evenodd"></path><path id="path1" d="M0.000 200.000 L 0.000 400.000 200.000 400.000 L 400.000 400.000 400.000 200.000 L 400.000 0.000 200.000 0.000 L 0.000 0.000 0.000 200.000 M112.662 50.200 C 113.451 50.530,114.436 50.800,114.849 50.800 C 115.262 50.800,115.600 50.980,115.600 51.200 C 115.600 51.420,115.928 51.600,116.329 51.600 C 117.736 51.600,122.400 56.988,122.400 58.612 C 122.400 58.899,122.588 59.196,122.817 59.272 C 123.575 59.525,123.984 64.479,123.992 73.500 L 124.000 82.400 146.987 82.400 L 169.973 82.400 170.134 72.500 C 170.298 62.411,170.526 59.865,171.363 58.800 C 171.622 58.470,172.094 57.660,172.410 57.000 C 173.508 54.711,178.180 50.800,179.816 50.800 C 180.087 50.800,180.824 50.531,181.454 50.202 C 183.900 48.927,189.681 50.246,192.396 52.700 C 192.944 53.195,193.515 53.600,193.665 53.600 C 194.178 53.600,197.600 59.105,197.600 59.930 C 197.600 60.383,197.780 60.864,198.000 61.000 C 198.250 61.155,198.400 65.204,198.400 71.824 L 198.400 82.400 221.179 82.400 L 243.959 82.400 244.130 73.100 C 244.322 62.631,244.579 60.700,246.185 57.671 C 247.455 55.276,250.530 52.083,251.896 51.740 C 252.393 51.615,252.800 51.353,252.800 51.157 C 252.800 50.960,253.138 50.800,253.551 50.800 C 253.964 50.800,254.949 50.530,255.738 50.200 C 257.567 49.436,259.878 49.437,261.346 50.202 C 261.976 50.531,262.724 50.800,263.008 50.800 C 264.611 50.800,269.600 54.635,269.600 55.867 C 269.600 56.160,269.735 56.401,269.900 56.403 C 270.352 56.406,271.600 58.760,271.600 59.609 C 271.600 60.018,271.780 60.464,272.000 60.600 C 272.251 60.755,272.400 64.871,272.400 71.624 L 272.400 82.400 280.776 82.400 C 285.929 82.400,289.248 82.554,289.400 82.800 C 289.536 83.020,290.052 83.200,290.547 83.200 C 291.042 83.200,291.796 83.464,292.224 83.787 C 292.651 84.110,293.315 84.380,293.700 84.387 C 294.085 84.394,294.400 84.580,294.400 84.800 C 294.400 85.020,294.592 85.200,294.827 85.200 C 296.000 85.200,301.746 90.592,302.844 92.722 C 303.149 93.315,303.503 93.890,303.631 94.000 C 304.165 94.461,305.200 96.992,305.200 97.838 C 305.200 98.341,305.380 98.864,305.600 99.000 C 306.333 99.453,306.134 208.000,305.400 208.000 C 305.070 208.000,304.800 207.852,304.800 207.671 C 304.800 207.491,303.447 206.569,301.793 205.622 C 300.140 204.676,298.689 203.744,298.570 203.551 C 298.450 203.358,298.003 203.200,297.576 203.200 C 297.149 203.200,296.800 203.020,296.800 202.800 C 296.800 202.580,296.462 202.400,296.049 202.400 C 295.636 202.400,295.074 202.130,294.800 201.800 C 294.526 201.470,293.964 201.200,293.551 201.200 C 293.138 201.200,292.800 201.020,292.800 200.800 C 292.800 200.580,292.529 200.400,292.198 200.400 C 291.867 200.400,290.663 199.950,289.523 199.400 C 288.383 198.850,287.135 198.400,286.749 198.400 C 286.363 198.400,285.936 198.220,285.800 198.000 C 285.664 197.780,285.133 197.600,284.619 197.600 C 283.173 197.600,283.200 198.273,283.200 162.667 L 283.200 129.000 184.399 129.102 L 85.598 129.203 85.699 204.902 L 85.800 280.600 128.600 280.800 C 152.140 280.910,171.625 281.146,171.900 281.324 C 172.231 281.538,172.400 282.727,172.400 284.850 C 172.400 286.611,172.587 288.402,172.815 288.829 C 173.044 289.255,173.340 290.779,173.474 292.215 C 173.608 293.651,173.872 294.921,174.059 295.036 C 174.247 295.152,174.400 295.959,174.400 296.829 C 174.400 297.699,174.554 298.723,174.742 299.105 C 175.986 301.633,176.317 303.616,175.563 304.020 C 174.371 304.658,80.984 304.344,80.340 303.700 C 80.065 303.425,79.257 303.200,78.544 303.200 C 77.831 303.200,77.136 303.020,77.000 302.800 C 76.864 302.580,76.398 302.400,75.964 302.400 C 75.530 302.400,75.071 302.130,74.945 301.800 C 74.818 301.470,74.419 301.200,74.057 301.200 C 72.308 301.199,65.201 294.058,65.200 292.300 C 65.200 291.915,65.044 291.600,64.854 291.600 C 64.387 291.600,63.200 288.419,63.200 287.167 C 63.200 286.613,62.975 285.935,62.700 285.660 C 61.965 284.925,61.965 101.075,62.700 100.340 C 62.975 100.065,63.200 99.334,63.200 98.715 C 63.200 97.689,63.490 96.890,64.474 95.200 C 64.666 94.870,64.929 94.285,65.058 93.900 C 65.188 93.515,65.452 93.200,65.647 93.200 C 65.841 93.200,66.000 93.008,66.000 92.773 C 66.000 91.828,70.815 86.400,71.654 86.400 C 71.813 86.400,72.181 86.168,72.471 85.886 C 73.248 85.129,77.498 83.200,78.387 83.200 C 78.808 83.200,79.264 83.020,79.400 82.800 C 79.552 82.554,82.804 82.400,87.824 82.400 L 96.000 82.400 96.000 72.224 C 96.000 65.871,96.150 61.954,96.400 61.800 C 96.620 61.664,96.800 61.020,96.800 60.368 C 96.800 58.239,102.074 51.600,103.765 51.600 C 104.114 51.600,104.400 51.420,104.400 51.200 C 104.400 50.980,104.814 50.800,105.320 50.800 C 105.826 50.800,106.411 50.637,106.620 50.439 C 107.587 49.520,110.736 49.395,112.662 50.200 M107.100 60.846 C 106.495 61.297,106.000 61.922,106.000 62.233 C 106.000 62.545,105.820 62.800,105.600 62.800 C 105.339 62.800,105.200 69.655,105.200 82.566 L 105.200 102.333 106.723 103.966 C 109.494 106.938,112.616 106.105,114.518 101.886 C 115.618 99.447,115.548 65.448,114.439 63.284 C 112.670 59.834,109.754 58.866,107.100 60.846 M181.100 61.175 C 180.495 61.787,180.000 62.583,180.000 62.944 C 180.000 63.305,179.820 63.600,179.600 63.600 C 178.958 63.600,179.062 100.843,179.707 102.086 C 181.371 105.294,184.753 106.769,186.615 105.100 C 187.743 104.088,188.211 103.625,188.700 103.036 C 189.085 102.572,189.200 97.919,189.200 82.800 C 189.200 67.691,189.085 63.023,188.700 62.545 C 186.302 59.568,183.236 59.015,181.100 61.175 M255.460 60.905 C 253.292 63.528,253.262 63.815,253.217 82.315 C 253.172 101.098,253.278 102.125,255.514 104.500 C 257.149 106.236,259.786 106.081,261.733 104.133 L 263.200 102.667 263.200 82.919 C 263.200 61.743,263.236 62.147,261.206 60.513 C 260.100 59.623,256.306 59.882,255.460 60.905 M145.475 144.071 L 146.400 144.939 146.400 159.049 L 146.400 173.159 145.062 174.180 L 143.724 175.200 124.908 175.200 C 104.657 175.200,104.484 175.183,103.338 173.118 C 102.693 171.956,102.561 145.200,103.200 145.200 C 103.420 145.200,103.600 144.960,103.600 144.668 C 103.600 143.332,105.234 143.194,122.400 143.081 C 143.812 142.941,144.294 142.961,145.475 144.071 M205.054 144.051 L 206.000 144.939 206.000 158.865 C 206.000 173.547,205.896 174.400,204.111 174.400 C 203.830 174.400,203.600 174.580,203.600 174.800 C 203.600 175.482,165.948 175.333,164.623 174.646 C 162.396 173.490,162.426 173.710,162.413 158.900 C 162.404 150.025,162.541 145.200,162.800 145.200 C 163.020 145.200,163.200 144.960,163.200 144.668 C 163.200 144.101,164.497 143.320,165.769 143.121 C 166.192 143.054,174.992 143.037,185.324 143.081 L 204.109 143.163 205.054 144.051 M264.700 144.098 L 265.600 144.939 265.600 158.934 L 265.600 172.929 264.328 174.064 L 263.056 175.200 244.174 175.200 C 224.219 175.200,223.979 175.179,222.590 173.346 C 222.130 172.738,222.023 170.074,222.013 158.955 L 222.000 145.309 223.031 144.278 C 224.392 142.917,223.155 142.982,244.800 143.128 C 263.471 143.254,263.816 143.271,264.700 144.098 M145.600 190.000 C 146.881 191.281,146.842 218.676,145.558 219.838 C 144.754 220.566,143.822 220.600,124.720 220.600 L 104.724 220.600 103.764 219.400 L 102.804 218.200 102.802 204.700 C 102.801 195.965,102.941 191.200,103.200 191.200 C 103.420 191.200,103.600 190.966,103.600 190.680 C 103.600 189.239,104.151 189.200,124.680 189.200 C 144.267 189.200,144.821 189.221,145.600 190.000 M205.200 190.000 C 205.956 190.756,206.000 191.333,206.000 200.554 L 206.000 210.308 205.074 210.915 C 203.919 211.672,200.694 214.573,197.088 218.100 L 194.327 220.800 180.464 220.796 C 164.349 220.790,164.021 220.759,163.085 219.129 C 161.933 217.121,162.057 192.005,163.227 190.362 L 164.054 189.200 184.227 189.200 C 203.867 189.200,204.421 189.221,205.200 190.000 M264.978 190.223 C 266.364 192.338,265.713 193.428,263.200 193.200 C 256.680 192.607,240.923 193.850,238.497 195.148 C 238.033 195.397,237.111 195.600,236.450 195.600 C 235.788 195.600,235.136 195.780,235.000 196.000 C 234.864 196.220,234.144 196.400,233.400 196.400 C 232.656 196.400,231.949 196.558,231.830 196.752 C 231.579 197.157,227.956 198.400,227.025 198.400 C 226.681 198.400,226.400 198.580,226.400 198.800 C 226.400 199.020,226.034 199.200,225.586 199.200 C 225.138 199.200,224.336 199.486,223.804 199.834 C 222.252 200.851,222.000 200.280,222.000 195.738 C 222.000 192.118,222.117 191.360,222.827 190.362 L 223.654 189.200 243.981 189.200 L 264.308 189.200 264.978 190.223 M271.186 207.151 C 272.609 207.405,273.950 207.790,274.166 208.006 C 274.383 208.223,275.233 208.400,276.056 208.400 C 276.879 208.400,277.664 208.580,277.800 208.800 C 277.936 209.020,278.555 209.200,279.175 209.200 C 279.795 209.200,280.526 209.470,280.800 209.800 C 281.074 210.130,281.728 210.400,282.254 210.400 C 282.780 210.400,283.523 210.560,283.905 210.755 C 284.287 210.950,285.590 211.559,286.800 212.107 C 289.022 213.113,291.440 214.270,292.839 214.995 C 293.257 215.212,293.600 215.527,293.600 215.695 C 293.600 215.863,293.846 216.000,294.147 216.000 C 294.619 216.000,298.989 218.704,300.812 220.124 C 306.031 224.189,311.242 229.147,313.505 232.200 C 314.320 233.300,315.395 234.648,315.893 235.196 C 316.392 235.744,316.800 236.419,316.800 236.696 C 316.800 236.973,316.980 237.200,317.200 237.200 C 317.420 237.200,317.600 237.470,317.600 237.800 C 317.600 238.130,317.751 238.400,317.936 238.400 C 318.120 238.400,318.476 238.805,318.727 239.300 C 318.977 239.795,319.627 240.920,320.170 241.800 C 321.707 244.287,322.400 245.675,322.400 246.261 C 322.400 246.558,322.545 246.800,322.723 246.800 C 323.010 246.800,323.440 247.682,324.868 251.200 C 325.091 251.750,325.527 252.710,325.837 253.332 C 326.147 253.955,326.400 254.890,326.400 255.409 C 326.400 255.928,326.580 256.464,326.800 256.600 C 327.020 256.736,327.200 257.366,327.200 258.000 C 327.200 258.634,327.370 259.258,327.577 259.386 C 327.784 259.514,328.067 260.469,328.204 261.509 C 328.342 262.549,328.615 263.760,328.811 264.200 C 329.368 265.453,329.659 269.517,329.828 278.400 C 329.913 282.910,329.987 286.735,329.992 286.900 C 329.996 287.065,330.585 287.203,331.300 287.206 C 333.990 287.218,335.906 288.257,337.371 290.497 C 338.101 291.613,337.987 293.600,337.192 293.600 C 336.977 293.600,336.800 293.831,336.800 294.114 C 336.800 294.397,335.880 295.432,334.754 296.414 C 333.629 297.396,330.523 300.360,327.850 303.000 C 318.920 311.822,315.826 314.184,314.381 313.281 C 313.957 313.016,313.428 312.800,313.205 312.800 C 312.506 312.800,311.200 311.236,311.200 310.400 C 311.200 309.960,311.020 309.600,310.800 309.600 C 310.580 309.600,310.400 309.137,310.400 308.571 C 310.400 308.006,310.130 307.273,309.800 306.943 C 309.470 306.613,309.200 306.006,309.200 305.595 C 309.200 305.184,309.020 304.736,308.800 304.600 C 308.580 304.464,308.400 304.018,308.400 303.609 C 308.400 303.200,308.100 302.265,307.732 301.532 C 306.493 299.060,306.400 298.813,306.400 298.005 C 306.400 297.562,306.220 297.200,306.000 297.200 C 305.780 297.200,305.600 296.855,305.600 296.432 C 305.600 296.010,305.300 295.065,304.932 294.332 C 303.679 291.832,303.600 291.610,303.600 290.605 C 303.600 290.052,303.441 289.600,303.246 289.600 C 302.333 289.600,301.529 285.558,302.172 284.202 C 303.200 282.037,307.298 280.540,308.200 282.000 C 308.336 282.220,309.236 282.400,310.200 282.400 C 311.164 282.400,312.064 282.580,312.200 282.800 C 312.336 283.020,312.617 283.200,312.824 283.200 C 313.359 283.200,313.311 269.754,312.772 268.747 C 312.383 268.021,311.935 266.074,311.331 262.496 C 311.211 261.779,310.951 261.094,310.756 260.973 C 310.560 260.852,310.394 260.358,310.387 259.876 C 310.380 259.394,310.110 258.651,309.787 258.224 C 309.464 257.796,309.200 257.121,309.200 256.724 C 309.200 256.326,309.020 256.000,308.800 256.000 C 308.580 256.000,308.400 255.550,308.400 255.000 C 308.400 254.450,308.223 254.000,308.008 254.000 C 307.792 254.000,307.502 253.550,307.364 253.000 C 307.226 252.450,306.953 252.000,306.757 252.000 C 306.560 252.000,306.400 251.640,306.400 251.200 C 306.400 250.760,306.220 250.400,306.000 250.400 C 305.780 250.400,305.600 250.208,305.600 249.973 C 305.600 249.739,305.150 248.957,304.600 248.236 C 304.050 247.514,303.600 246.760,303.600 246.558 C 303.600 246.357,303.195 245.743,302.700 245.194 C 302.205 244.646,300.812 243.028,299.605 241.599 C 297.176 238.724,296.621 238.175,294.001 236.055 C 293.011 235.255,291.931 234.342,291.601 234.027 C 289.935 232.439,282.551 228.203,279.000 226.798 C 278.560 226.624,277.543 226.193,276.740 225.841 C 275.936 225.488,274.901 225.200,274.440 225.200 C 273.978 225.200,273.600 225.038,273.600 224.840 C 273.600 224.642,272.835 224.386,271.900 224.271 C 270.965 224.156,268.670 223.753,266.800 223.376 C 262.249 222.458,253.764 222.457,249.200 223.373 C 247.330 223.748,245.124 224.152,244.297 224.270 C 243.471 224.388,242.695 224.645,242.574 224.842 C 242.452 225.039,242.048 225.201,241.676 225.202 C 241.304 225.204,240.484 225.474,239.854 225.802 C 239.224 226.131,238.457 226.400,238.149 226.400 C 237.841 226.400,237.277 226.560,236.895 226.756 C 236.513 226.951,235.480 227.446,234.600 227.856 C 233.720 228.265,232.940 228.735,232.867 228.900 C 232.793 229.065,232.388 229.200,231.967 229.200 C 231.545 229.200,231.200 229.360,231.200 229.557 C 231.200 229.753,230.750 230.026,230.200 230.164 C 229.650 230.302,229.200 230.592,229.200 230.808 C 229.200 231.023,228.930 231.200,228.600 231.200 C 228.270 231.200,228.000 231.380,228.000 231.600 C 228.000 231.820,227.775 232.003,227.500 232.008 C 227.225 232.012,226.282 232.642,225.404 233.408 C 224.527 234.173,223.678 234.800,223.519 234.800 C 222.766 234.800,214.402 243.202,214.399 243.961 C 214.399 244.093,213.859 244.830,213.200 245.600 C 212.541 246.370,212.001 247.107,212.001 247.239 C 212.000 247.370,211.622 247.910,211.159 248.439 C 210.697 248.967,209.943 250.255,209.484 251.300 C 209.026 252.345,208.504 253.200,208.325 253.200 C 208.146 253.200,208.000 253.549,208.000 253.976 C 208.000 254.403,207.820 254.864,207.600 255.000 C 207.380 255.136,207.200 255.575,207.200 255.975 C 207.200 256.375,206.930 256.926,206.600 257.200 C 206.270 257.474,206.000 258.038,206.000 258.454 C 206.000 258.870,205.842 259.523,205.649 259.905 C 205.101 260.990,204.400 263.383,204.400 264.168 C 204.400 264.559,204.140 265.446,203.823 266.140 C 202.305 269.457,202.305 286.943,203.823 290.260 C 204.140 290.954,204.400 291.841,204.400 292.232 C 204.400 293.017,205.101 295.410,205.649 296.495 C 205.842 296.877,206.000 297.530,206.000 297.946 C 206.000 298.362,206.270 298.926,206.600 299.200 C 206.930 299.474,207.200 300.025,207.200 300.425 C 207.200 300.825,207.380 301.264,207.600 301.400 C 207.820 301.536,208.000 302.067,208.000 302.581 C 208.000 303.094,208.270 303.618,208.600 303.745 C 208.930 303.871,209.200 304.178,209.200 304.426 C 209.200 304.674,209.572 305.400,210.028 306.039 C 211.274 307.788,210.915 308.777,208.600 309.971 C 207.500 310.538,206.032 311.407,205.338 311.901 C 204.644 312.396,203.879 312.800,203.638 312.800 C 203.397 312.800,203.200 312.960,203.200 313.157 C 203.200 313.353,202.750 313.626,202.200 313.764 C 201.650 313.902,201.200 314.192,201.200 314.408 C 201.200 314.623,200.840 314.800,200.400 314.800 C 199.960 314.800,199.599 314.935,199.597 315.100 C 199.582 316.509,196.347 316.269,195.830 314.820 C 195.709 314.479,195.260 313.660,194.834 313.000 C 194.407 312.340,194.045 311.485,194.029 311.100 C 194.013 310.715,193.855 310.400,193.677 310.400 C 193.281 310.400,192.000 307.572,192.000 306.699 C 192.000 306.351,191.865 306.007,191.700 305.933 C 191.239 305.729,190.000 302.869,190.000 302.010 C 190.000 301.590,189.820 301.136,189.600 301.000 C 189.380 300.864,189.200 300.148,189.200 299.410 C 189.200 298.671,189.023 298.007,188.806 297.933 C 188.208 297.731,187.296 293.182,186.374 285.800 C 185.864 281.716,186.131 268.210,186.736 267.470 C 186.948 267.212,187.210 266.010,187.318 264.800 C 187.589 261.784,188.330 258.628,188.806 258.467 C 189.023 258.393,189.200 257.729,189.200 256.990 C 189.200 256.252,189.380 255.536,189.600 255.400 C 189.820 255.264,190.000 254.801,190.000 254.371 C 190.000 253.941,190.171 253.277,190.381 252.895 C 190.590 252.513,191.023 251.570,191.343 250.800 C 193.072 246.635,193.381 246.000,193.677 246.000 C 193.855 246.000,194.013 245.685,194.029 245.300 C 194.045 244.915,194.407 244.060,194.834 243.400 C 195.260 242.740,195.718 241.885,195.851 241.500 C 195.984 241.115,196.252 240.800,196.447 240.800 C 196.641 240.800,196.800 240.592,196.800 240.338 C 196.800 240.084,197.250 239.286,197.800 238.564 C 198.350 237.843,198.800 237.076,198.800 236.860 C 198.800 236.644,198.946 236.407,199.125 236.333 C 199.304 236.260,200.210 235.165,201.138 233.900 C 202.066 232.635,203.000 231.600,203.213 231.600 C 203.426 231.600,203.600 231.418,203.600 231.196 C 203.600 230.421,213.223 221.289,214.517 220.836 C 214.775 220.745,215.259 220.398,215.593 220.063 C 216.101 219.554,218.175 218.188,223.418 214.911 C 223.848 214.642,224.830 214.127,225.600 213.766 C 226.370 213.405,227.872 212.680,228.937 212.155 C 230.002 211.630,231.130 211.200,231.442 211.200 C 231.755 211.200,232.323 211.042,232.705 210.849 C 234.543 209.920,236.501 209.200,237.190 209.200 C 237.610 209.200,238.064 209.020,238.200 208.800 C 238.336 208.580,239.121 208.400,239.944 208.400 C 240.767 208.400,241.615 208.225,241.829 208.011 C 242.042 207.798,243.448 207.448,244.951 207.235 C 246.455 207.023,247.794 206.739,247.928 206.606 C 248.341 206.192,268.452 206.664,271.186 207.151 M261.800 228.313 C 263.231 229.542,263.600 231.526,263.600 238.000 C 263.600 247.549,261.283 250.792,256.762 247.573 L 255.600 246.746 255.600 238.002 L 255.600 229.258 256.654 228.429 C 257.968 227.396,260.660 227.335,261.800 228.313 M145.577 235.883 C 146.375 236.740,146.400 237.189,146.400 250.954 L 146.400 265.142 145.346 265.971 C 144.312 266.784,143.915 266.800,124.707 266.800 L 105.121 266.800 103.960 265.558 L 102.800 264.315 102.800 251.037 C 102.800 236.794,102.908 235.944,104.800 235.229 C 105.387 235.008,113.840 234.882,125.277 234.926 L 144.755 235.000 145.577 235.883 M183.045 235.374 C 183.275 235.972,181.064 240.990,180.387 241.408 C 180.174 241.540,180.000 241.997,180.000 242.424 C 180.000 242.851,179.820 243.200,179.600 243.200 C 179.380 243.200,179.200 243.532,179.200 243.939 C 179.200 244.612,178.535 246.311,177.574 248.095 C 177.368 248.477,177.200 249.064,177.200 249.400 C 177.200 249.736,177.044 250.323,176.854 250.705 C 176.329 251.758,175.542 254.077,175.329 255.200 C 175.225 255.750,174.984 256.560,174.795 257.000 C 174.605 257.440,174.365 258.430,174.262 259.200 C 173.235 266.859,173.290 266.786,168.460 266.794 C 164.790 266.800,164.700 266.777,163.560 265.558 L 162.400 264.315 162.400 250.944 C 162.400 236.526,162.467 236.038,164.572 235.186 C 166.138 234.552,182.795 234.722,183.045 235.374 M290.724 254.103 C 290.813 255.179,290.671 255.675,290.224 255.846 C 289.881 255.978,289.600 256.360,289.600 256.696 C 289.600 257.429,283.188 266.355,280.472 269.402 C 279.882 270.064,278.650 271.594,277.732 272.802 C 276.815 274.011,275.612 275.509,275.059 276.131 C 274.506 276.754,273.470 277.979,272.757 278.853 C 267.870 284.848,263.870 288.800,262.688 288.800 C 262.178 288.800,261.568 288.992,261.334 289.226 C 260.299 290.261,256.433 288.300,254.584 285.800 C 253.933 284.920,253.220 283.999,253.000 283.753 C 251.546 282.129,250.800 281.150,250.800 280.867 C 250.800 280.687,250.350 280.117,249.800 279.600 C 249.250 279.083,248.800 278.484,248.800 278.268 C 248.800 278.052,248.350 277.286,247.800 276.564 C 247.250 275.843,246.800 275.061,246.800 274.827 C 246.800 274.592,246.620 274.400,246.400 274.400 C 246.180 274.400,246.000 274.216,246.000 273.992 C 246.000 273.768,245.550 272.871,245.000 272.000 C 244.450 271.129,244.000 270.063,244.000 269.632 C 244.000 269.200,243.820 268.736,243.600 268.600 C 241.908 267.554,244.017 265.003,246.025 265.669 C 247.573 266.182,250.097 267.296,250.400 267.601 C 250.510 267.711,251.140 268.068,251.800 268.395 C 252.460 268.721,253.937 269.666,255.083 270.494 C 256.229 271.322,257.354 272.000,257.583 272.000 C 257.812 272.000,258.000 272.141,258.000 272.314 C 258.000 272.486,258.510 272.929,259.134 273.298 C 260.428 274.062,260.906 273.850,263.600 271.321 C 264.370 270.598,265.122 270.005,265.272 270.003 C 265.421 270.002,266.231 269.346,267.072 268.548 C 267.912 267.749,269.500 266.419,270.600 265.592 C 271.700 264.764,272.960 263.748,273.400 263.332 C 273.840 262.916,274.920 262.041,275.800 261.388 C 276.680 260.735,277.848 259.795,278.396 259.300 C 278.944 258.805,279.537 258.400,279.713 258.400 C 279.890 258.400,280.502 257.967,281.072 257.438 C 281.642 256.910,282.579 256.235,283.154 255.939 C 283.729 255.643,284.290 255.307,284.400 255.191 C 284.510 255.076,285.140 254.637,285.800 254.216 C 289.447 251.887,290.539 251.863,290.724 254.103 M228.218 274.560 C 229.764 276.108,230.492 278.448,229.600 279.000 C 229.380 279.136,229.200 279.592,229.200 280.013 C 229.200 282.316,213.364 283.136,210.538 280.980 C 208.365 279.322,208.683 275.556,211.110 274.211 C 212.895 273.221,227.172 273.513,228.218 274.560 M261.939 307.947 C 262.412 308.358,262.800 308.977,262.800 309.323 C 262.800 309.670,262.980 310.064,263.200 310.200 C 263.443 310.350,263.600 313.271,263.600 317.624 C 263.600 322.141,263.452 324.800,263.200 324.800 C 262.980 324.800,262.800 325.138,262.800 325.551 C 262.800 327.035,259.850 328.259,258.085 327.507 C 255.539 326.423,255.600 326.673,255.600 317.367 L 255.600 308.858 256.654 308.029 C 258.022 306.953,260.744 306.911,261.939 307.947 M213.758 316.022 C 215.632 316.903,217.600 318.824,217.600 319.773 C 217.600 320.092,217.780 320.464,218.000 320.600 C 218.220 320.736,218.400 321.546,218.400 322.400 C 218.400 323.254,218.220 324.064,218.000 324.200 C 217.780 324.336,217.600 324.767,217.600 325.157 C 217.600 328.858,210.309 329.701,207.166 326.364 C 202.364 321.266,207.563 313.110,213.758 316.022 M309.147 317.017 C 311.747 319.205,313.121 324.493,311.251 325.116 C 311.003 325.199,310.800 325.439,310.800 325.650 C 310.800 325.861,310.444 326.416,310.008 326.883 C 305.836 331.362,298.800 328.924,298.800 323.000 C 298.800 317.806,305.489 313.939,309.147 317.017 M235.600 332.000 C 235.600 332.220,235.947 332.400,236.371 332.400 C 236.795 332.400,237.695 333.071,238.371 333.891 C 240.777 336.810,239.394 343.600,236.394 343.600 C 235.983 343.600,235.536 343.780,235.400 344.000 C 235.264 344.220,234.454 344.400,233.600 344.400 C 232.746 344.400,231.936 344.220,231.800 344.000 C 231.664 343.780,231.203 343.600,230.776 343.600 C 227.355 343.600,225.364 336.550,227.977 333.689 C 228.625 332.980,229.345 332.400,229.577 332.400 C 229.810 332.400,230.000 332.220,230.000 332.000 C 230.000 331.771,231.200 331.600,232.800 331.600 C 234.400 331.600,235.600 331.771,235.600 332.000 M287.200 332.000 C 287.200 332.220,287.447 332.400,287.749 332.400 C 292.001 332.400,291.380 343.503,287.124 343.587 C 286.752 343.594,286.336 343.780,286.200 344.000 C 285.232 345.567,280.063 343.918,278.580 341.569 C 276.591 338.417,278.595 332.400,281.634 332.400 C 282.055 332.400,282.400 332.220,282.400 332.000 C 282.400 331.778,283.467 331.600,284.800 331.600 C 286.133 331.600,287.200 331.778,287.200 332.000 M261.940 338.015 C 267.072 340.690,266.815 347.116,261.481 349.500 C 260.143 350.098,256.948 350.163,256.600 349.600 C 256.464 349.380,256.092 349.200,255.773 349.200 C 254.686 349.200,252.894 347.164,252.387 345.354 C 250.865 339.918,256.817 335.345,261.940 338.015 " stroke="none" fill="#fbfbfb" fill-rule="evenodd"></path><path id="path2" d="M107.738 50.306 C 107.484 50.468,108.502 50.600,110.000 50.600 C 111.498 50.600,112.516 50.468,112.262 50.306 C 112.008 50.144,110.990 50.012,110.000 50.012 C 109.010 50.012,107.992 50.144,107.738 50.306 M182.138 50.306 C 181.884 50.468,182.902 50.600,184.400 50.600 C 185.898 50.600,186.916 50.468,186.662 50.306 C 186.408 50.144,185.390 50.012,184.400 50.012 C 183.410 50.012,182.392 50.144,182.138 50.306 M256.136 50.308 C 255.880 50.470,256.897 50.602,258.396 50.602 C 259.894 50.601,260.913 50.468,260.660 50.306 C 260.062 49.924,256.737 49.925,256.136 50.308 M178.624 51.413 C 177.625 52.168,177.995 52.163,179.454 51.402 C 180.084 51.074,180.330 50.810,180.000 50.815 C 179.670 50.821,179.051 51.090,178.624 51.413 M263.346 51.402 C 264.805 52.163,265.175 52.168,264.176 51.413 C 263.749 51.090,263.130 50.821,262.800 50.815 C 262.470 50.810,262.716 51.074,263.346 51.402 M267.840 54.377 C 268.522 55.160,269.377 56.245,269.740 56.789 C 270.103 57.333,270.400 57.571,270.400 57.317 C 270.400 57.063,269.545 55.978,268.500 54.905 C 267.455 53.832,267.158 53.595,267.840 54.377 M195.200 56.400 C 195.670 57.060,196.144 57.600,196.254 57.600 C 196.364 57.600,196.070 57.060,195.600 56.400 C 195.130 55.740,194.656 55.200,194.546 55.200 C 194.436 55.200,194.730 55.740,195.200 56.400 M272.189 72.200 L 272.200 82.600 279.600 82.613 L 287.000 82.626 279.707 82.504 L 272.413 82.382 272.296 72.091 L 272.179 61.800 272.189 72.200 M244.893 63.600 C 244.893 64.370,244.975 64.685,245.076 64.300 C 245.176 63.915,245.176 63.285,245.076 62.900 C 244.975 62.515,244.893 62.830,244.893 63.600 M189.386 82.600 C 189.386 93.600,189.437 98.042,189.500 92.472 C 189.563 86.902,189.562 77.902,189.500 72.472 C 189.437 67.042,189.385 71.600,189.386 82.600 M123.373 72.800 C 123.373 78.190,123.430 80.395,123.499 77.700 C 123.568 75.005,123.568 70.595,123.499 67.900 C 123.430 65.205,123.373 67.410,123.373 72.800 M170.573 72.800 C 170.573 78.190,170.630 80.395,170.699 77.700 C 170.768 75.005,170.768 70.595,170.699 67.900 C 170.630 65.205,170.573 67.410,170.573 72.800 M198.189 72.900 L 198.200 82.600 221.300 82.605 L 244.400 82.610 221.407 82.502 L 198.414 82.394 198.296 72.797 L 198.178 63.200 198.189 72.900 M178.985 82.600 C 178.985 93.160,179.037 97.423,179.100 92.072 C 179.163 86.722,179.163 78.082,179.100 72.872 C 179.036 67.663,178.985 72.040,178.985 82.600 M96.092 73.091 L 96.000 82.382 88.500 82.501 L 81.000 82.619 88.513 82.709 C 94.292 82.779,96.070 82.683,96.220 82.291 C 96.328 82.011,96.364 77.736,96.300 72.791 L 96.184 63.800 96.092 73.091 M263.782 84.800 C 263.782 93.270,263.835 96.735,263.899 92.500 C 263.964 88.265,263.964 81.335,263.899 77.100 C 263.835 72.865,263.782 76.330,263.782 84.800 M135.529 82.700 C 141.979 82.762,152.419 82.762,158.729 82.700 C 165.038 82.638,159.760 82.587,147.000 82.587 C 134.240 82.587,129.078 82.638,135.529 82.700 M70.922 87.429 L 69.800 88.458 71.100 87.554 C 71.815 87.057,72.400 86.593,72.400 86.525 C 72.400 86.209,71.958 86.480,70.922 87.429 M302.037 92.400 C 303.196 94.196,303.200 94.201,303.198 93.767 C 303.197 93.565,302.732 92.860,302.165 92.200 L 301.134 91.000 302.037 92.400 M62.652 101.700 C 62.303 103.004,62.356 284.112,62.706 284.662 C 62.868 284.916,63.000 243.651,63.000 192.962 C 63.000 142.273,62.976 100.800,62.947 100.800 C 62.917 100.800,62.785 101.205,62.652 101.700 M104.859 101.800 C 104.841 102.240,105.090 102.949,105.413 103.376 C 105.736 103.804,106.000 103.975,106.000 103.756 C 106.000 103.538,105.837 103.189,105.639 102.980 C 105.440 102.771,105.191 102.240,105.085 101.800 L 104.893 101.000 104.859 101.800 M109.100 105.882 C 109.595 105.978,110.405 105.978,110.900 105.882 C 111.395 105.787,110.990 105.709,110.000 105.709 C 109.010 105.709,108.605 105.787,109.100 105.882 M183.305 105.887 C 183.914 105.979,184.814 105.977,185.305 105.882 C 185.797 105.787,185.300 105.711,184.200 105.714 C 183.100 105.717,182.697 105.795,183.305 105.887 M257.500 105.882 C 257.995 105.978,258.805 105.978,259.300 105.882 C 259.795 105.787,259.390 105.709,258.400 105.709 C 257.410 105.709,257.005 105.787,257.500 105.882 M85.474 128.500 C 84.316 129.352,84.641 281.382,85.800 281.439 C 86.409 281.469,86.433 281.439,85.900 281.311 C 85.236 281.153,85.200 277.187,85.200 204.980 L 85.200 128.815 86.100 128.598 C 86.595 128.478,131.218 128.430,185.262 128.490 C 239.306 128.551,283.440 128.465,283.338 128.300 C 282.990 127.737,86.240 127.936,85.474 128.500 M164.349 143.900 C 163.870 144.511,163.877 144.540,164.405 144.130 C 164.738 143.871,165.728 143.586,166.605 143.497 L 168.200 143.334 166.549 143.267 C 165.393 143.220,164.733 143.410,164.349 143.900 M146.094 159.020 C 146.037 167.333,145.845 172.828,145.601 173.121 C 145.382 173.386,145.475 173.368,145.807 173.082 C 146.328 172.632,146.396 170.689,146.300 158.980 L 146.189 145.400 146.094 159.020 M205.780 159.000 C 205.780 166.480,205.834 169.483,205.899 165.674 C 205.965 161.865,205.965 155.745,205.899 152.074 C 205.833 148.403,205.779 151.520,205.780 159.000 M265.380 159.000 C 265.380 166.480,265.434 169.483,265.499 165.674 C 265.565 161.865,265.565 155.745,265.499 152.074 C 265.433 148.403,265.379 151.520,265.380 159.000 M115.328 174.700 C 120.568 174.763,129.028 174.763,134.128 174.700 C 139.227 174.636,134.940 174.585,124.600 174.585 C 114.260 174.585,110.087 174.637,115.328 174.700 M174.928 174.700 C 180.168 174.763,188.628 174.763,193.728 174.700 C 198.827 174.636,194.540 174.585,184.200 174.585 C 173.860 174.585,169.687 174.637,174.928 174.700 M234.528 174.700 C 239.768 174.763,248.228 174.763,253.328 174.700 C 258.427 174.636,254.140 174.585,243.800 174.585 C 233.460 174.585,229.287 174.637,234.528 174.700 M114.672 189.500 C 119.992 189.563,128.812 189.563,134.272 189.500 C 139.733 189.437,135.380 189.385,124.600 189.385 C 113.820 189.385,109.353 189.437,114.672 189.500 M174.272 189.500 C 179.592 189.563,188.412 189.563,193.872 189.500 C 199.333 189.437,194.980 189.385,184.200 189.385 C 173.420 189.385,168.953 189.437,174.272 189.500 M233.872 189.500 C 239.192 189.563,248.012 189.563,253.472 189.500 C 258.933 189.437,254.580 189.385,243.800 189.385 C 233.020 189.385,228.553 189.437,233.872 189.500 M146.180 204.800 C 146.180 212.390,146.234 215.495,146.299 211.700 C 146.365 207.905,146.365 201.695,146.299 197.900 C 146.234 194.105,146.180 197.210,146.180 204.800 M205.772 200.600 C 205.772 205.660,205.829 207.675,205.899 205.077 C 205.969 202.480,205.968 198.340,205.898 195.877 C 205.828 193.415,205.771 195.540,205.772 200.600 M252.105 192.687 C 252.714 192.779,253.614 192.777,254.105 192.682 C 254.597 192.587,254.100 192.511,253.000 192.514 C 251.900 192.517,251.497 192.595,252.105 192.687 M260.700 192.682 C 261.195 192.778,262.005 192.778,262.500 192.682 C 262.995 192.587,262.590 192.509,261.600 192.509 C 260.610 192.509,260.205 192.587,260.700 192.682 M301.600 205.164 C 302.150 205.614,302.780 205.983,303.000 205.985 C 303.428 205.988,302.705 205.434,301.400 204.760 C 300.869 204.485,300.936 204.621,301.600 205.164 M254.700 206.698 C 256.515 206.772,259.485 206.772,261.300 206.698 C 263.115 206.623,261.630 206.563,258.000 206.563 C 254.370 206.563,252.885 206.623,254.700 206.698 M239.200 208.818 C 238.762 209.115,238.924 209.152,239.800 208.956 C 241.271 208.627,241.590 208.398,240.567 208.406 C 240.145 208.409,239.530 208.595,239.200 208.818 M218.100 218.440 C 217.165 219.102,216.400 219.733,216.400 219.841 C 216.400 219.950,217.210 219.481,218.200 218.800 C 219.190 218.119,220.000 217.480,220.000 217.381 C 220.000 217.105,219.924 217.148,218.100 218.440 M104.162 219.500 C 104.581 219.995,105.211 220.386,105.562 220.368 C 106.104 220.342,106.109 220.303,105.600 220.116 C 105.270 219.995,104.640 219.604,104.200 219.248 C 103.407 218.606,103.406 218.608,104.162 219.500 M145.220 219.376 C 144.957 219.693,144.350 220.028,143.871 220.122 C 143.025 220.286,143.024 220.293,143.838 220.346 C 144.299 220.375,145.002 220.040,145.400 219.600 C 145.798 219.160,146.028 218.800,145.911 218.800 C 145.794 218.800,145.483 219.059,145.220 219.376 M163.762 219.500 C 164.181 219.995,164.811 220.386,165.162 220.368 C 165.704 220.342,165.709 220.303,165.200 220.116 C 164.870 219.995,164.240 219.604,163.800 219.248 C 163.007 218.606,163.006 218.608,163.762 219.500 M212.567 222.629 L 211.000 224.058 212.700 222.762 C 214.253 221.578,214.632 221.200,214.267 221.200 C 214.193 221.200,213.428 221.843,212.567 222.629 M256.115 222.296 C 257.388 222.376,259.368 222.375,260.515 222.294 C 261.662 222.214,260.620 222.149,258.200 222.150 C 255.780 222.151,254.842 222.216,256.115 222.296 M249.600 222.800 C 248.796 223.057,248.757 223.123,249.400 223.132 C 249.840 223.138,250.560 222.989,251.000 222.800 C 252.019 222.362,250.968 222.362,249.600 222.800 M265.000 222.800 C 265.440 222.989,266.160 223.138,266.600 223.132 C 267.243 223.123,267.204 223.057,266.400 222.800 C 265.032 222.362,263.981 222.362,265.000 222.800 M308.400 227.400 C 310.260 229.270,311.872 230.800,311.982 230.800 C 312.092 230.800,310.660 229.270,308.800 227.400 C 306.940 225.530,305.328 224.000,305.218 224.000 C 305.108 224.000,306.540 225.530,308.400 227.400 M255.769 238.000 C 255.769 242.510,255.827 244.355,255.898 242.100 C 255.970 239.845,255.970 236.155,255.898 233.900 C 255.827 231.645,255.769 233.490,255.769 238.000 M288.000 230.946 C 288.000 231.056,288.540 231.530,289.200 232.000 C 289.860 232.470,290.400 232.764,290.400 232.654 C 290.400 232.544,289.860 232.070,289.200 231.600 C 288.540 231.130,288.000 230.836,288.000 230.946 M114.900 235.500 C 120.345 235.563,129.255 235.563,134.700 235.500 C 140.145 235.437,135.690 235.385,124.800 235.385 C 113.910 235.385,109.455 235.437,114.900 235.500 M168.900 235.498 C 171.265 235.569,175.135 235.569,177.500 235.498 C 179.865 235.428,177.930 235.370,173.200 235.370 C 168.470 235.370,166.535 235.428,168.900 235.498 M163.355 236.612 C 162.990 237.169,162.764 237.698,162.853 237.787 C 162.942 237.876,163.318 237.420,163.689 236.774 C 164.514 235.336,164.269 235.217,163.355 236.612 M297.200 238.600 C 298.617 240.030,299.867 241.200,299.977 241.200 C 300.087 241.200,299.017 240.030,297.600 238.600 C 296.183 237.170,294.933 236.000,294.823 236.000 C 294.713 236.000,295.783 237.170,297.200 238.600 M218.800 238.200 C 217.828 239.190,217.123 240.000,217.233 240.000 C 217.343 240.000,218.228 239.190,219.200 238.200 C 220.172 237.210,220.877 236.400,220.767 236.400 C 220.657 236.400,219.772 237.210,218.800 238.200 M317.200 238.000 C 317.670 238.660,318.144 239.200,318.254 239.200 C 318.364 239.200,318.070 238.660,317.600 238.000 C 317.130 237.340,316.656 236.800,316.546 236.800 C 316.436 236.800,316.730 237.340,317.200 238.000 M146.180 250.800 C 146.180 258.390,146.234 261.495,146.299 257.700 C 146.365 253.905,146.365 247.695,146.299 243.900 C 146.234 240.105,146.180 243.210,146.180 250.800 M319.237 241.200 C 320.396 242.996,320.400 243.001,320.398 242.567 C 320.397 242.365,319.932 241.660,319.365 241.000 L 318.334 239.800 319.237 241.200 M213.600 244.000 C 213.130 244.660,212.836 245.200,212.946 245.200 C 213.056 245.200,213.530 244.660,214.000 244.000 C 214.470 243.340,214.764 242.800,214.654 242.800 C 214.544 242.800,214.070 243.340,213.600 244.000 M323.524 249.400 C 323.726 249.840,323.992 250.470,324.114 250.800 C 324.307 251.318,324.341 251.315,324.368 250.776 C 324.386 250.434,324.120 249.804,323.778 249.376 C 323.166 248.612,323.162 248.613,323.524 249.400 M189.665 255.817 C 189.409 256.378,189.208 257.144,189.218 257.519 C 189.227 257.893,189.489 257.487,189.800 256.615 C 190.445 254.804,190.359 254.294,189.665 255.817 M326.022 255.800 C 326.016 256.020,326.271 256.920,326.588 257.800 C 326.905 258.680,327.173 259.106,327.182 258.746 C 327.192 258.386,326.937 257.486,326.616 256.746 C 326.294 256.006,326.027 255.580,326.022 255.800 M162.800 263.889 C 162.800 264.121,163.171 264.736,163.624 265.256 L 164.447 266.200 163.745 265.000 C 162.820 263.421,162.800 263.397,162.800 263.889 M187.293 265.600 C 187.293 266.370,187.375 266.685,187.476 266.300 C 187.576 265.915,187.576 265.285,187.476 264.900 C 187.375 264.515,187.293 264.830,187.293 265.600 M243.754 266.577 C 243.632 266.894,243.603 267.479,243.689 267.877 C 243.787 268.328,243.924 268.112,244.054 267.300 C 244.271 265.938,244.130 265.596,243.754 266.577 M328.909 268.000 C 328.909 268.990,328.987 269.395,329.082 268.900 C 329.178 268.405,329.178 267.595,329.082 267.100 C 328.987 266.605,328.909 267.010,328.909 268.000 M186.656 268.884 C 186.521 269.388,186.427 270.160,186.446 270.600 C 186.465 271.040,186.645 270.698,186.846 269.840 C 187.236 268.178,187.070 267.340,186.656 268.884 M252.433 269.330 C 252.525 269.401,253.230 269.866,254.000 270.363 L 255.400 271.266 254.200 270.235 C 253.540 269.668,252.835 269.203,252.633 269.202 C 252.432 269.201,252.342 269.258,252.433 269.330 M313.301 270.600 C 313.305 271.480,313.387 271.793,313.483 271.295 C 313.579 270.798,313.575 270.078,313.475 269.695 C 313.375 269.313,313.296 269.720,313.301 270.600 M202.093 273.200 C 202.093 273.970,202.175 274.285,202.276 273.900 C 202.376 273.515,202.376 272.885,202.276 272.500 C 202.175 272.115,202.093 272.430,202.093 273.200 M329.687 277.650 C 329.639 280.428,329.511 283.308,329.401 284.050 L 329.203 285.400 329.613 284.098 C 329.839 283.382,329.968 280.502,329.899 277.698 L 329.774 272.600 329.687 277.650 M313.709 275.200 C 313.709 276.190,313.787 276.595,313.882 276.100 C 313.978 275.605,313.978 274.795,313.882 274.300 C 313.787 273.805,313.709 274.210,313.709 275.200 M211.461 274.300 C 211.358 274.465,213.643 274.553,216.537 274.496 C 226.105 274.307,227.104 274.158,219.324 274.078 C 215.102 274.035,211.563 274.135,211.461 274.300 M210.703 280.700 C 211.221 281.195,211.860 281.595,212.122 281.588 C 212.385 281.581,212.240 281.376,211.800 281.132 C 211.360 280.888,210.721 280.488,210.380 280.244 C 210.040 280.000,210.185 280.205,210.703 280.700 M313.593 281.481 C 313.487 282.625,313.547 283.415,313.726 283.235 C 313.905 283.056,313.991 282.119,313.918 281.154 L 313.785 279.400 313.593 281.481 M108.131 281.500 C 119.752 281.559,138.652 281.559,150.131 281.500 C 161.609 281.441,152.100 281.393,129.000 281.393 C 105.900 281.393,96.509 281.441,108.131 281.500 M171.995 284.518 L 172.191 287.400 172.316 284.841 C 172.385 283.433,172.297 282.136,172.121 281.959 C 171.944 281.781,171.888 282.933,171.995 284.518 M305.063 281.900 C 304.962 282.065,305.579 282.209,306.433 282.219 C 307.327 282.230,307.777 282.106,307.493 281.925 C 306.862 281.525,305.303 281.509,305.063 281.900 M302.249 284.615 C 302.112 284.973,302.015 285.566,302.034 285.933 C 302.053 286.300,302.227 286.069,302.421 285.420 C 302.798 284.158,302.665 283.533,302.249 284.615 M186.428 286.033 C 186.444 286.565,186.619 287.360,186.819 287.800 C 187.071 288.358,187.107 288.115,186.938 287.000 C 186.655 285.143,186.387 284.636,186.428 286.033 M202.893 288.000 C 202.893 288.770,202.975 289.085,203.076 288.700 C 203.176 288.315,203.176 287.685,203.076 287.300 C 202.975 286.915,202.893 287.230,202.893 288.000 M172.644 290.600 C 172.973 292.071,173.202 292.390,173.194 291.367 C 173.191 290.945,173.005 290.330,172.782 290.000 C 172.485 289.562,172.448 289.724,172.644 290.600 M187.293 290.800 C 187.293 291.570,187.375 291.885,187.476 291.500 C 187.576 291.115,187.576 290.485,187.476 290.100 C 187.375 289.715,187.293 290.030,187.293 290.800 M204.830 296.000 C 204.828 296.576,205.957 298.866,205.986 298.346 C 205.994 298.206,205.737 297.486,205.416 296.746 C 205.094 296.006,204.831 295.670,204.830 296.000 M68.000 296.125 C 68.000 296.194,68.585 296.779,69.300 297.425 L 70.600 298.600 69.425 297.300 C 68.330 296.088,68.000 295.816,68.000 296.125 M328.791 301.500 L 325.400 305.000 328.900 301.609 C 332.151 298.459,332.582 298.000,332.291 298.000 C 332.231 298.000,330.656 299.575,328.791 301.500 M189.232 299.000 C 189.230 299.440,189.486 300.250,189.800 300.800 C 190.530 302.078,190.534 301.804,189.812 299.800 C 189.495 298.920,189.234 298.560,189.232 299.000 M175.200 302.932 C 175.200 303.547,171.732 303.604,128.500 303.700 L 81.800 303.803 128.513 303.902 C 177.135 304.004,176.943 304.010,175.449 302.516 C 175.312 302.379,175.200 302.566,175.200 302.932 M308.430 302.800 C 308.428 303.376,309.557 305.666,309.586 305.146 C 309.594 305.006,309.337 304.286,309.016 303.546 C 308.694 302.806,308.431 302.470,308.430 302.800 M321.785 308.100 L 319.800 310.200 321.900 308.215 C 323.851 306.371,324.183 306.000,323.885 306.000 C 323.822 306.000,322.877 306.945,321.785 308.100 M209.996 307.108 C 210.239 307.608,210.311 308.221,210.157 308.470 C 209.985 308.748,210.055 308.813,210.338 308.638 C 210.955 308.257,210.921 307.903,210.178 306.976 C 209.582 306.232,209.574 306.238,209.996 307.108 M256.080 308.880 C 255.219 309.741,255.420 325.366,256.300 326.032 C 256.896 326.482,256.925 326.478,256.500 326.001 C 255.804 325.220,255.786 309.574,256.480 308.880 C 256.744 308.616,256.870 308.400,256.760 308.400 C 256.650 308.400,256.344 308.616,256.080 308.880 M211.300 328.276 C 211.685 328.376,212.315 328.376,212.700 328.276 C 213.085 328.175,212.770 328.093,212.000 328.093 C 211.230 328.093,210.915 328.175,211.300 328.276 M284.100 331.876 C 284.485 331.976,285.115 331.976,285.500 331.876 C 285.885 331.775,285.570 331.693,284.800 331.693 C 284.030 331.693,283.715 331.775,284.100 331.876 M256.400 338.018 C 255.962 338.315,256.124 338.352,257.000 338.156 C 258.471 337.827,258.790 337.598,257.767 337.606 C 257.345 337.609,256.730 337.795,256.400 338.018 M259.233 337.744 C 259.325 337.823,259.940 338.008,260.600 338.156 C 261.476 338.352,261.638 338.315,261.200 338.018 C 260.660 337.653,258.832 337.398,259.233 337.744 M252.493 343.600 C 252.493 344.370,252.575 344.685,252.676 344.300 C 252.776 343.915,252.776 343.285,252.676 342.900 C 252.575 342.515,252.493 342.830,252.493 343.600 M283.300 344.276 C 283.685 344.376,284.315 344.376,284.700 344.276 C 285.085 344.175,284.770 344.093,284.000 344.093 C 283.230 344.093,282.915 344.175,283.300 344.276 M262.894 348.012 C 262.175 348.665,261.737 349.200,261.919 349.200 C 262.101 349.200,262.768 348.660,263.400 348.000 C 264.870 346.465,264.586 346.472,262.894 348.012 " stroke="none" fill="#a1b8c9" fill-rule="evenodd"></path><path id="path3" d="M257.705 50.687 C 258.314 50.779,259.214 50.777,259.705 50.682 C 260.197 50.587,259.700 50.511,258.600 50.514 C 257.500 50.517,257.097 50.595,257.705 50.687 M248.975 54.500 L 247.800 55.800 249.100 54.625 C 249.815 53.979,250.400 53.394,250.400 53.325 C 250.400 53.016,250.070 53.288,248.975 54.500 M170.971 71.200 C 170.971 76.150,171.028 78.175,171.099 75.700 C 171.169 73.225,171.169 69.175,171.099 66.700 C 171.028 64.225,170.971 66.250,170.971 71.200 M96.399 73.081 C 96.290 78.405,96.338 82.623,96.508 82.453 C 96.677 82.284,96.766 77.927,96.707 72.772 L 96.599 63.400 96.399 73.081 M115.385 82.800 C 115.385 93.470,115.437 97.835,115.500 92.500 C 115.563 87.165,115.563 78.435,115.500 73.100 C 115.437 67.765,115.385 72.130,115.385 82.800 M252.985 82.600 C 252.985 93.160,253.037 97.423,253.100 92.072 C 253.163 86.722,253.163 78.082,253.100 72.872 C 253.036 67.663,252.985 72.040,252.985 82.600 M263.737 66.600 C 263.739 68.360,263.809 69.030,263.893 68.089 C 263.978 67.149,263.977 65.709,263.891 64.889 C 263.805 64.070,263.736 64.840,263.737 66.600 M244.970 73.400 C 244.971 78.240,245.029 80.165,245.099 77.678 C 245.169 75.191,245.169 71.231,245.098 68.878 C 245.028 66.525,244.970 68.560,244.970 73.400 M170.846 81.267 C 170.821 81.853,170.575 82.424,170.300 82.535 C 169.908 82.693,169.911 82.744,170.313 82.768 C 170.947 82.808,171.330 81.887,171.080 80.923 C 170.954 80.436,170.878 80.548,170.846 81.267 M305.794 154.400 C 305.794 183.110,305.842 194.855,305.900 180.500 C 305.958 166.145,305.958 142.655,305.900 128.300 C 305.842 113.945,305.794 125.690,305.794 154.400 M283.791 162.200 C 283.791 180.460,283.840 187.988,283.900 178.930 C 283.960 169.871,283.960 154.931,283.900 145.730 C 283.840 136.528,283.791 143.940,283.791 162.200 M105.109 143.899 C 103.336 144.997,103.200 146.089,103.200 159.280 C 103.200 173.140,103.305 173.764,105.701 174.201 C 109.629 174.916,144.761 174.207,145.370 173.400 C 145.881 172.724,145.977 170.495,145.987 158.970 L 146.000 145.339 144.968 144.370 L 143.936 143.400 125.068 143.312 C 107.960 143.232,106.098 143.287,105.109 143.899 M166.800 143.467 C 162.831 143.914,162.800 144.035,162.800 159.039 C 162.800 172.614,162.939 173.623,164.884 174.144 C 167.767 174.916,203.492 174.400,204.546 173.571 L 205.600 172.742 205.600 159.041 L 205.600 145.339 204.568 144.370 L 203.536 143.400 185.868 143.354 C 176.151 143.329,167.570 143.380,166.800 143.467 M224.590 143.769 C 222.492 144.665,222.400 145.304,222.400 159.039 C 222.400 172.614,222.539 173.623,224.484 174.144 C 227.367 174.916,263.092 174.400,264.146 173.571 L 265.200 172.742 265.200 159.041 L 265.200 145.339 264.168 144.370 L 263.136 143.400 244.468 143.326 C 229.973 143.269,225.530 143.368,224.590 143.769 M104.109 190.682 C 103.466 191.664,103.400 193.006,103.400 205.071 L 103.400 218.378 104.311 219.289 L 105.222 220.200 124.769 220.200 C 143.430 220.200,144.354 220.165,145.158 219.438 C 146.349 218.360,146.489 191.781,145.311 190.405 C 144.638 189.618,144.165 189.600,124.720 189.600 L 104.818 189.600 104.109 190.682 M163.596 190.900 C 162.849 192.125,162.803 192.945,162.801 205.078 L 162.800 217.955 163.765 219.078 L 164.730 220.200 179.333 220.314 L 193.936 220.428 196.083 218.314 C 197.264 217.151,199.430 215.134,200.896 213.831 C 202.363 212.529,203.453 211.286,203.319 211.070 C 203.186 210.853,203.255 210.787,203.473 210.922 C 205.569 212.217,206.925 193.594,204.954 190.586 L 204.308 189.600 184.348 189.600 L 164.388 189.600 163.596 190.900 M223.362 190.441 C 222.447 191.450,221.938 199.600,222.789 199.600 C 223.186 199.600,224.972 198.934,228.200 197.582 C 228.900 197.289,233.883 195.793,237.400 194.820 C 242.827 193.318,252.807 192.259,259.518 192.474 C 265.709 192.671,266.102 192.513,264.423 190.500 L 263.672 189.600 243.898 189.600 C 224.312 189.600,224.117 189.608,223.362 190.441 M259.900 191.897 C 258.415 191.974,255.985 191.974,254.500 191.897 C 253.015 191.820,254.230 191.757,257.200 191.757 C 260.170 191.757,261.385 191.820,259.900 191.897 M251.905 222.283 C 252.402 222.379,253.122 222.375,253.505 222.275 C 253.887 222.175,253.480 222.096,252.600 222.101 C 251.720 222.105,251.407 222.187,251.905 222.283 M262.900 222.276 C 263.285 222.376,263.915 222.376,264.300 222.276 C 264.685 222.175,264.370 222.093,263.600 222.093 C 262.830 222.093,262.515 222.175,262.900 222.276 M304.800 224.125 C 304.800 224.194,305.385 224.779,306.100 225.425 L 307.400 226.600 306.225 225.300 C 305.130 224.088,304.800 223.816,304.800 224.125 M208.378 226.700 L 207.000 228.200 208.500 226.822 C 209.325 226.063,210.000 225.388,210.000 225.322 C 210.000 225.016,209.662 225.304,208.378 226.700 M257.292 228.800 L 255.984 229.598 256.092 238.098 L 256.200 246.599 257.624 247.362 C 259.146 248.177,260.388 248.064,261.800 246.981 C 262.633 246.342,263.244 233.893,262.608 230.504 C 262.179 228.217,259.603 227.391,257.292 228.800 M256.697 238.084 C 256.618 239.468,256.553 238.440,256.553 235.800 C 256.552 233.160,256.616 232.028,256.695 233.284 C 256.774 234.541,256.775 236.701,256.697 238.084 M315.200 235.600 C 315.670 236.260,316.144 236.800,316.254 236.800 C 316.364 236.800,316.070 236.260,315.600 235.600 C 315.130 234.940,314.656 234.400,314.546 234.400 C 314.436 234.400,314.730 234.940,315.200 235.600 M173.089 235.500 L 164.379 235.616 163.591 236.908 C 162.851 238.121,162.803 238.970,162.801 250.841 C 162.800 266.653,162.620 266.134,168.154 266.316 C 172.372 266.455,172.666 266.271,173.010 263.272 C 173.154 262.022,173.425 260.460,173.613 259.800 C 173.800 259.140,174.347 257.160,174.827 255.400 C 176.604 248.891,177.829 245.707,180.885 239.645 C 182.574 236.295,182.926 235.010,182.076 235.292 C 181.924 235.342,177.880 235.436,173.089 235.500 M104.162 236.441 C 103.218 237.484,102.755 261.959,103.639 264.094 C 104.620 266.462,104.055 266.400,124.727 266.400 C 143.243 266.400,143.703 266.381,144.838 265.573 L 146.000 264.746 146.000 250.835 C 146.000 237.866,145.950 236.879,145.269 236.262 C 143.984 235.100,105.224 235.269,104.162 236.441 M256.683 243.295 C 256.587 243.793,256.505 243.480,256.501 242.600 C 256.496 241.720,256.575 241.313,256.675 241.695 C 256.775 242.078,256.779 242.798,256.683 243.295 M286.650 254.399 C 282.956 256.558,269.933 266.261,268.400 267.997 C 268.290 268.122,266.528 269.631,264.485 271.351 C 260.544 274.670,259.904 274.869,258.192 273.309 C 255.346 270.715,247.716 266.474,245.600 266.309 L 244.200 266.200 244.235 267.905 C 244.254 268.842,244.519 270.102,244.824 270.705 C 245.807 272.647,250.090 279.362,251.161 280.640 C 251.732 281.321,253.100 283.056,254.200 284.493 C 256.969 288.113,258.185 288.724,262.124 288.472 C 263.856 288.361,273.185 278.546,272.544 277.509 C 272.389 277.259,272.462 277.191,272.716 277.348 C 272.967 277.503,274.036 276.547,275.218 275.110 C 276.353 273.729,277.578 272.239,277.941 271.798 C 278.303 271.357,279.586 269.737,280.790 268.198 C 281.995 266.659,283.094 265.310,283.231 265.200 C 283.474 265.006,287.687 258.994,288.702 257.393 C 291.589 252.839,290.940 251.892,286.650 254.399 M186.565 278.200 C 186.566 282.160,186.626 283.726,186.698 281.680 C 186.771 279.634,186.771 276.394,186.698 274.480 C 186.624 272.566,186.565 274.240,186.565 278.200 M329.293 273.600 C 329.293 274.370,329.375 274.685,329.476 274.300 C 329.576 273.915,329.576 273.285,329.476 272.900 C 329.375 272.515,329.293 272.830,329.293 273.600 M210.559 275.405 C 209.027 276.937,209.312 279.446,211.159 280.687 C 212.841 281.817,224.871 282.083,227.354 281.045 C 229.542 280.131,229.816 275.791,227.746 274.848 C 225.500 273.825,211.692 274.272,210.559 275.405 M314.146 278.200 C 314.147 280.400,314.214 281.249,314.295 280.087 C 314.376 278.924,314.376 277.124,314.293 276.087 C 314.211 275.049,314.145 276.000,314.146 278.200 M328.944 285.969 C 328.978 286.812,329.231 287.400,329.600 287.500 C 330.005 287.609,330.049 287.553,329.736 287.329 C 329.481 287.147,329.186 286.458,329.080 285.799 C 328.903 284.701,328.892 284.715,328.944 285.969 M172.093 288.400 C 172.093 289.170,172.175 289.485,172.276 289.100 C 172.376 288.715,172.376 288.085,172.276 287.700 C 172.175 287.315,172.093 287.630,172.093 288.400 M334.820 295.379 L 333.040 297.400 335.001 295.514 C 336.079 294.477,336.880 293.567,336.781 293.493 C 336.681 293.419,335.799 294.267,334.820 295.379 M69.200 297.000 C 70.395 298.210,71.463 299.200,71.573 299.200 C 71.683 299.200,70.795 298.210,69.600 297.000 C 68.405 295.790,67.337 294.800,67.227 294.800 C 67.117 294.800,68.005 295.790,69.200 297.000 M324.975 304.900 L 323.800 306.200 325.100 305.025 C 325.815 304.379,326.400 303.794,326.400 303.725 C 326.400 303.416,326.070 303.688,324.975 304.900 M257.600 307.896 C 256.161 308.456,256.025 309.272,256.025 317.400 C 256.025 326.779,256.074 326.925,259.181 326.971 C 262.570 327.021,262.600 326.935,262.600 317.350 C 262.600 307.709,261.829 306.252,257.600 307.896 M319.978 309.500 L 318.600 311.000 320.100 309.622 C 320.925 308.863,321.600 308.188,321.600 308.122 C 321.600 307.816,321.262 308.104,319.978 309.500 M256.697 320.500 C 256.621 322.095,256.559 320.790,256.559 317.600 C 256.559 314.410,256.621 313.105,256.697 314.700 C 256.773 316.295,256.773 318.905,256.697 320.500 M209.683 316.268 C 208.292 316.560,206.074 319.001,205.781 320.563 C 204.746 326.076,211.629 330.409,215.717 326.819 C 220.523 322.600,216.129 314.915,209.683 316.268 M303.285 316.984 C 299.224 319.225,297.988 324.077,300.782 326.803 C 304.047 329.989,307.979 329.314,310.652 325.108 C 313.591 320.483,308.038 314.360,303.285 316.984 M213.505 327.475 C 213.122 327.575,212.402 327.579,211.905 327.483 C 211.407 327.387,211.720 327.305,212.600 327.301 C 213.480 327.296,213.887 327.375,213.505 327.475 M230.560 332.362 C 225.187 334.802,226.129 341.928,232.030 343.479 C 239.802 345.521,242.334 334.806,234.686 332.242 C 232.354 331.460,232.561 331.454,230.560 332.362 M281.859 332.801 C 278.136 334.660,277.048 337.694,278.918 341.000 C 280.234 343.325,284.884 345.082,285.800 343.600 C 285.936 343.380,286.352 343.194,286.724 343.187 C 287.096 343.179,287.760 342.864,288.200 342.487 C 293.659 337.802,288.284 329.594,281.859 332.801 M289.876 338.700 C 289.775 339.085,289.693 338.770,289.693 338.000 C 289.693 337.230,289.775 336.915,289.876 337.300 C 289.976 337.685,289.976 338.315,289.876 338.700 M256.609 338.318 C 250.867 340.286,251.652 348.814,257.614 349.244 C 260.476 349.450,261.576 349.196,262.915 348.021 C 266.605 344.781,265.413 339.607,260.651 338.193 C 259.553 337.867,258.642 337.608,258.627 337.618 C 258.612 337.627,257.704 337.942,256.609 338.318 " stroke="none" fill="#6c9dcc" fill-rule="evenodd"></path><path id="path4" d="M109.100 49.882 C 109.595 49.978,110.405 49.978,110.900 49.882 C 111.395 49.787,110.990 49.709,110.000 49.709 C 109.010 49.709,108.605 49.787,109.100 49.882 M181.700 50.012 C 181.205 50.211,180.800 50.489,180.800 50.630 C 180.800 50.771,181.115 50.747,181.500 50.578 C 181.885 50.409,183.100 50.146,184.200 49.992 L 186.200 49.713 184.400 49.682 C 183.410 49.665,182.195 49.813,181.700 50.012 M258.600 49.963 C 259.700 50.133,260.960 50.417,261.400 50.594 C 262.048 50.856,262.108 50.818,261.714 50.393 C 261.447 50.104,260.187 49.820,258.914 49.762 L 256.600 49.655 258.600 49.963 M116.400 51.882 C 116.730 52.003,117.450 52.484,118.000 52.951 L 119.000 53.800 118.030 52.700 C 117.497 52.095,116.777 51.614,116.430 51.632 C 115.891 51.659,115.886 51.695,116.400 51.882 M250.703 52.500 C 250.185 52.995,250.040 53.200,250.380 52.956 C 250.721 52.712,251.360 52.312,251.800 52.068 C 252.240 51.824,252.385 51.619,252.122 51.612 C 251.860 51.605,251.221 52.005,250.703 52.500 M265.611 52.260 C 266.155 52.623,267.303 53.568,268.162 54.360 C 269.316 55.425,269.527 55.528,268.970 54.758 C 268.200 53.694,265.533 51.600,264.947 51.600 C 264.768 51.600,265.067 51.897,265.611 52.260 M270.400 57.487 C 270.400 57.743,270.580 58.064,270.800 58.200 C 271.020 58.336,271.221 58.842,271.246 59.324 C 271.282 59.989,271.337 60.033,271.474 59.507 C 271.574 59.127,271.373 58.411,271.028 57.918 C 270.683 57.425,270.400 57.231,270.400 57.487 M97.285 58.413 C 97.018 58.840,96.807 59.417,96.816 59.695 C 96.825 59.973,97.109 59.689,97.447 59.065 C 98.150 57.768,98.018 57.238,97.285 58.413 M196.400 57.887 C 196.400 58.143,196.580 58.464,196.800 58.600 C 197.020 58.736,197.221 59.242,197.246 59.724 C 197.282 60.389,197.337 60.433,197.474 59.907 C 197.574 59.527,197.373 58.811,197.028 58.318 C 196.683 57.825,196.400 57.631,196.400 57.887 M171.216 58.981 C 170.951 59.300,170.794 59.859,170.867 60.222 C 170.956 60.663,171.155 60.470,171.465 59.641 C 171.982 58.262,171.929 58.121,171.216 58.981 M245.221 59.549 C 244.953 60.195,244.815 61.146,244.913 61.662 C 245.071 62.495,245.097 62.473,245.146 61.474 C 245.175 60.854,245.395 59.984,245.632 59.539 C 245.870 59.095,245.984 58.651,245.886 58.553 C 245.788 58.455,245.489 58.903,245.221 59.549 M109.100 59.882 C 109.595 59.978,110.405 59.978,110.900 59.882 C 111.395 59.787,110.990 59.709,110.000 59.709 C 109.010 59.709,108.605 59.787,109.100 59.882 M183.305 59.887 C 183.914 59.979,184.814 59.977,185.305 59.882 C 185.797 59.787,185.300 59.711,184.200 59.714 C 183.100 59.717,182.697 59.795,183.305 59.887 M257.500 59.882 C 257.995 59.978,258.805 59.978,259.300 59.882 C 259.795 59.787,259.390 59.709,258.400 59.709 C 257.410 59.709,257.005 59.787,257.500 59.882 M180.799 61.002 C 180.283 61.551,179.954 62.000,180.069 62.000 C 180.466 62.000,182.127 60.394,181.932 60.199 C 181.825 60.091,181.314 60.452,180.799 61.002 M123.301 61.800 C 123.305 62.680,123.387 62.993,123.483 62.495 C 123.579 61.998,123.575 61.278,123.475 60.895 C 123.375 60.513,123.296 60.920,123.301 61.800 M113.212 60.859 C 113.206 61.002,113.648 61.902,114.195 62.859 C 114.743 63.817,115.192 64.420,115.193 64.200 C 115.196 63.757,113.232 60.445,113.212 60.859 M188.073 61.800 C 188.323 62.350,188.684 62.800,188.873 62.800 C 189.063 62.800,188.924 62.350,188.563 61.800 C 188.203 61.250,187.843 60.800,187.763 60.800 C 187.683 60.800,187.822 61.250,188.073 61.800 M197.840 61.866 C 198.208 63.399,198.400 63.544,198.400 62.290 C 198.400 61.717,198.213 61.132,197.984 60.990 C 197.711 60.821,197.662 61.123,197.840 61.866 M262.000 61.047 C 262.000 61.267,262.264 61.796,262.587 62.224 C 262.910 62.651,263.175 62.820,263.175 62.600 C 263.175 62.380,262.910 61.851,262.587 61.424 C 262.264 60.996,262.000 60.827,262.000 61.047 M96.154 62.177 C 96.032 62.494,96.003 63.079,96.089 63.477 C 96.187 63.928,96.324 63.712,96.454 62.900 C 96.671 61.538,96.530 61.196,96.154 62.177 M170.249 62.615 C 170.112 62.973,170.038 67.616,170.084 72.933 L 170.167 82.600 170.384 72.400 C 170.617 61.422,170.620 61.651,170.249 62.615 M244.252 64.100 C 243.829 65.678,243.964 82.400,244.400 82.400 C 244.656 82.400,244.800 78.933,244.800 72.800 C 244.800 63.363,244.733 62.304,244.252 64.100 M123.773 73.000 C 123.773 78.280,123.830 80.385,123.899 77.677 C 123.968 74.969,123.968 70.649,123.899 68.077 C 123.829 65.505,123.772 67.720,123.773 73.000 M263.385 82.600 C 263.385 93.160,263.437 97.423,263.500 92.072 C 263.563 86.722,263.563 78.082,263.500 72.872 C 263.436 67.663,263.385 72.040,263.385 82.600 M104.985 82.800 C 104.985 93.030,105.036 97.215,105.100 92.100 C 105.163 86.985,105.163 78.615,105.100 73.500 C 105.036 68.385,104.985 72.570,104.985 82.800 M288.800 83.019 C 289.790 83.339,291.140 83.775,291.800 83.988 C 292.906 84.346,292.940 84.330,292.224 83.788 C 291.796 83.465,291.042 83.200,290.547 83.200 C 290.052 83.200,289.536 83.020,289.400 82.800 C 289.264 82.580,288.668 82.409,288.076 82.419 C 287.217 82.434,287.363 82.555,288.800 83.019 M72.800 85.509 C 72.800 85.679,72.181 86.152,71.423 86.559 C 70.666 86.967,69.947 87.561,69.825 87.880 C 69.680 88.257,69.984 88.165,70.701 87.612 C 71.306 87.147,72.250 86.419,72.800 85.996 C 73.350 85.573,73.575 85.221,73.300 85.213 C 73.025 85.206,72.800 85.339,72.800 85.509 M298.000 87.685 C 298.770 88.466,299.477 89.034,299.571 88.948 C 299.752 88.782,298.717 87.777,297.395 86.833 C 296.958 86.521,297.230 86.904,298.000 87.685 M68.600 88.946 C 67.419 90.318,67.196 90.861,68.203 89.912 C 68.838 89.314,69.277 88.747,69.179 88.652 C 69.080 88.558,68.820 88.690,68.600 88.946 M304.007 95.412 C 304.443 96.189,304.814 97.134,304.832 97.512 C 304.850 97.920,304.944 97.999,305.063 97.706 C 305.295 97.132,303.999 94.000,303.530 94.000 C 303.356 94.000,303.571 94.635,304.007 95.412 M64.480 94.880 C 64.216 95.144,64.000 95.673,64.000 96.056 C 64.000 96.439,63.820 96.864,63.600 97.000 C 63.380 97.136,63.212 97.552,63.226 97.924 C 63.240 98.296,63.531 97.970,63.874 97.200 C 64.216 96.430,64.656 95.485,64.851 95.100 C 65.267 94.281,65.149 94.211,64.480 94.880 M62.667 100.267 C 62.520 100.413,62.411 100.908,62.425 101.367 C 62.449 102.133,62.482 102.123,62.834 101.242 C 63.226 100.263,63.144 99.789,62.667 100.267 M253.219 100.451 C 253.185 101.613,254.302 103.776,255.465 104.799 L 256.600 105.797 255.539 104.599 C 254.955 103.939,254.198 102.590,253.858 101.600 C 253.517 100.610,253.230 100.093,253.219 100.451 M114.390 102.087 C 114.105 102.809,113.406 103.939,112.836 104.599 L 111.800 105.797 112.926 104.805 C 114.068 103.797,115.469 101.336,115.106 100.973 C 114.997 100.864,114.675 101.365,114.390 102.087 M62.197 193.200 C 62.197 243.030,62.243 263.415,62.300 238.500 C 62.357 213.585,62.357 172.815,62.300 147.900 C 62.243 122.985,62.197 143.370,62.197 193.200 M261.600 104.277 C 260.731 105.189,260.555 105.504,261.137 105.109 C 261.947 104.559,263.469 102.792,263.123 102.804 C 263.055 102.807,262.370 103.469,261.600 104.277 M106.013 103.881 C 106.019 104.057,106.469 104.523,107.013 104.919 C 107.556 105.314,107.994 105.494,107.987 105.319 C 107.981 105.143,107.531 104.677,106.987 104.281 C 106.444 103.886,106.006 103.706,106.013 103.881 M85.700 128.664 C 85.302 128.825,85.200 144.474,85.200 205.033 L 85.200 281.200 86.100 281.204 C 86.595 281.206,105.749 281.204,128.665 281.200 C 157.347 281.195,170.683 281.326,171.465 281.622 C 172.401 281.975,172.509 281.958,172.080 281.525 C 171.660 281.101,163.344 280.962,128.680 280.800 L 85.800 280.600 85.699 204.902 L 85.598 129.203 184.397 129.102 L 283.196 129.000 283.301 162.800 L 283.407 196.600 283.403 162.600 L 283.400 128.600 184.800 128.531 C 130.570 128.493,85.975 128.553,85.700 128.664 M167.100 143.082 C 167.595 143.178,168.405 143.178,168.900 143.082 C 169.395 142.987,168.990 142.909,168.000 142.909 C 167.010 142.909,166.605 142.987,167.100 143.082 M200.500 143.076 C 200.885 143.176,201.515 143.176,201.900 143.076 C 202.285 142.975,201.970 142.893,201.200 142.893 C 200.430 142.893,200.115 142.975,200.500 143.076 M145.050 144.308 C 145.682 144.917,146.276 145.367,146.368 145.306 C 146.629 145.137,144.709 143.200,144.280 143.200 C 144.071 143.200,144.417 143.699,145.050 144.308 M204.650 144.308 C 205.282 144.917,205.876 145.367,205.968 145.306 C 206.229 145.137,204.309 143.200,203.880 143.200 C 203.671 143.200,204.017 143.699,204.650 144.308 M264.250 144.308 C 264.882 144.917,265.476 145.367,265.568 145.306 C 265.829 145.137,263.909 143.200,263.480 143.200 C 263.271 143.200,263.617 143.699,264.250 144.308 M222.485 144.813 C 220.882 147.379,222.035 174.417,223.746 174.394 C 224.072 174.389,224.076 174.305,223.760 174.094 C 222.523 173.268,222.400 171.907,222.400 159.000 C 222.400 150.411,222.548 145.671,222.832 145.139 C 223.399 144.081,223.111 143.810,222.485 144.813 M102.800 158.620 C 102.800 172.314,103.017 174.400,104.439 174.400 C 104.669 174.400,104.575 174.117,104.229 173.772 C 103.211 172.754,103.166 172.007,103.285 158.300 C 103.348 151.095,103.265 145.200,103.100 145.200 C 102.935 145.200,102.800 151.239,102.800 158.620 M162.400 158.814 C 162.400 172.788,162.573 174.400,164.075 174.400 C 164.285 174.400,164.175 174.117,163.829 173.772 C 162.811 172.754,162.766 172.007,162.885 158.300 C 162.948 151.095,162.865 145.200,162.700 145.200 C 162.535 145.200,162.400 151.326,162.400 158.814 M105.462 174.900 C 105.564 175.065,114.266 175.200,124.800 175.200 C 135.334 175.200,144.036 175.065,144.138 174.900 C 144.240 174.735,135.538 174.600,124.800 174.600 C 114.062 174.600,105.360 174.735,105.462 174.900 M165.062 174.900 C 165.304 175.292,203.600 175.292,203.600 174.900 C 203.600 174.735,194.887 174.600,184.238 174.600 C 173.589 174.600,164.960 174.735,165.062 174.900 M224.662 174.900 C 224.764 175.065,233.466 175.200,244.000 175.200 C 254.534 175.200,263.236 175.065,263.338 174.900 C 263.440 174.735,254.738 174.600,244.000 174.600 C 233.262 174.600,224.560 174.735,224.662 174.900 M163.227 190.362 C 162.374 191.559,161.879 218.030,162.700 218.538 C 162.865 218.641,162.948 212.846,162.885 205.662 C 162.763 191.702,162.799 191.201,164.010 189.990 C 164.445 189.555,164.632 189.200,164.427 189.200 C 164.222 189.200,163.682 189.723,163.227 190.362 M264.326 190.312 C 264.916 190.924,265.459 191.390,265.532 191.347 C 265.853 191.158,264.254 189.200,263.780 189.200 C 263.472 189.200,263.701 189.666,264.326 190.312 M222.173 191.327 C 221.799 192.300,222.188 200.131,222.616 200.273 C 222.845 200.349,223.385 200.128,223.816 199.783 C 224.577 199.174,224.575 199.168,223.726 199.578 C 223.246 199.810,222.740 200.000,222.602 200.000 C 222.464 200.000,222.407 197.930,222.476 195.399 C 222.599 190.830,222.561 190.315,222.173 191.327 M102.800 204.776 C 102.800 212.243,102.935 218.436,103.100 218.538 C 103.265 218.640,103.400 212.531,103.400 204.962 C 103.400 197.393,103.265 191.200,103.100 191.200 C 102.935 191.200,102.800 197.309,102.800 204.776 M255.891 192.689 C 256.601 192.777,257.861 192.779,258.691 192.692 C 259.521 192.605,258.940 192.533,257.400 192.531 C 255.860 192.529,255.181 192.600,255.891 192.689 M265.200 192.704 C 265.200 192.989,264.395 193.087,262.900 192.985 L 260.600 192.827 262.773 193.221 C 264.842 193.596,266.189 193.256,265.473 192.540 C 265.323 192.390,265.200 192.464,265.200 192.704 M248.000 193.200 L 245.400 193.462 247.800 193.496 C 249.120 193.515,251.100 193.390,252.200 193.218 L 254.200 192.907 252.400 192.922 C 251.410 192.931,249.430 193.056,248.000 193.200 M242.600 194.000 L 241.800 194.344 242.600 194.366 C 243.040 194.378,243.670 194.213,244.000 194.000 C 244.795 193.486,243.796 193.486,242.600 194.000 M238.400 194.800 C 238.070 195.013,237.260 195.217,236.600 195.254 C 235.515 195.314,235.497 195.335,236.411 195.478 C 236.967 195.565,238.047 195.365,238.811 195.034 C 239.575 194.702,239.930 194.427,239.600 194.422 C 239.270 194.417,238.730 194.587,238.400 194.800 M229.504 197.315 C 228.241 197.769,227.276 198.209,227.360 198.293 C 227.593 198.527,231.583 197.151,231.830 196.752 C 231.949 196.558,231.992 196.420,231.924 196.445 C 231.856 196.470,230.767 196.861,229.504 197.315 M290.400 199.800 C 290.950 200.114,291.580 200.372,291.800 200.372 C 292.020 200.372,291.750 200.114,291.200 199.800 C 290.650 199.486,290.020 199.228,289.800 199.228 C 289.580 199.228,289.850 199.486,290.400 199.800 M294.800 201.800 C 295.074 202.130,295.591 202.379,295.949 202.354 C 296.498 202.314,296.491 202.279,295.900 202.124 C 295.515 202.024,295.200 201.775,295.200 201.571 C 295.200 201.367,294.998 201.200,294.751 201.200 C 294.441 201.200,294.456 201.385,294.800 201.800 M298.601 203.602 C 298.869 204.036,301.200 205.334,301.200 205.050 C 301.200 204.956,300.559 204.501,299.776 204.039 C 298.993 203.577,298.464 203.380,298.601 203.602 M247.400 206.790 C 246.917 206.992,247.551 207.038,249.000 206.907 C 250.320 206.787,251.475 206.624,251.567 206.545 C 251.907 206.249,248.170 206.469,247.400 206.790 M264.433 206.545 C 264.525 206.624,265.680 206.787,267.000 206.907 C 268.449 207.038,269.083 206.992,268.600 206.790 C 267.830 206.469,264.093 206.249,264.433 206.545 M244.305 207.483 C 244.802 207.579,245.522 207.575,245.905 207.475 C 246.287 207.375,245.880 207.296,245.000 207.301 C 244.120 207.305,243.807 207.387,244.305 207.483 M270.305 207.483 C 270.802 207.579,271.522 207.575,271.905 207.475 C 272.287 207.375,271.880 207.296,271.000 207.301 C 270.120 207.305,269.807 207.387,270.305 207.483 M279.200 209.493 C 279.750 209.594,280.470 209.884,280.800 210.138 C 281.322 210.540,281.329 210.509,280.851 209.900 C 280.548 209.514,279.830 209.224,279.251 209.254 L 278.200 209.309 279.200 209.493 M285.346 211.802 C 285.976 212.131,286.696 212.399,286.946 212.398 C 287.196 212.396,286.884 212.126,286.254 211.798 C 285.624 211.469,284.904 211.201,284.654 211.202 C 284.404 211.204,284.716 211.474,285.346 211.802 M198.340 216.396 L 194.081 220.390 179.740 220.500 L 165.400 220.610 179.878 220.705 L 194.356 220.800 196.889 218.300 C 198.282 216.925,200.268 215.035,201.302 214.100 C 202.336 213.165,203.051 212.400,202.891 212.401 C 202.731 212.401,200.683 214.199,198.340 216.396 M225.266 213.793 C 223.534 214.747,223.417 215.216,225.115 214.395 C 226.042 213.948,226.800 213.496,226.800 213.391 C 226.800 213.096,226.288 213.230,225.266 213.793 M297.600 218.186 C 297.600 218.499,300.050 220.083,300.240 219.893 C 300.347 219.786,299.796 219.323,299.017 218.863 C 298.238 218.403,297.600 218.099,297.600 218.186 M115.128 220.700 C 120.478 220.763,129.118 220.763,134.328 220.700 C 139.537 220.636,135.160 220.585,124.600 220.585 C 114.040 220.585,109.777 220.637,115.128 220.700 M303.200 222.186 C 303.200 222.365,303.515 222.760,303.900 223.063 C 304.736 223.721,306.373 224.651,305.800 224.143 C 303.718 222.296,303.200 221.906,303.200 222.186 M251.000 222.800 L 250.200 223.144 251.000 223.166 C 251.440 223.178,252.070 223.013,252.400 222.800 C 253.195 222.286,252.196 222.286,251.000 222.800 M263.600 222.800 C 263.930 223.013,264.560 223.178,265.000 223.166 L 265.800 223.144 265.000 222.800 C 263.804 222.286,262.805 222.286,263.600 222.800 M245.400 223.852 C 244.416 224.333,244.380 224.392,245.200 224.177 C 245.750 224.033,247.010 223.779,248.000 223.611 L 249.800 223.307 248.200 223.286 C 247.320 223.274,246.060 223.529,245.400 223.852 M268.000 223.625 C 268.990 223.799,270.340 224.052,271.000 224.187 C 271.880 224.367,271.773 224.270,270.600 223.822 C 269.720 223.487,268.370 223.233,267.600 223.259 C 266.272 223.304,266.293 223.323,268.000 223.625 M238.800 225.833 C 237.448 226.584,238.411 226.555,239.854 225.802 C 240.484 225.474,240.730 225.221,240.400 225.242 C 240.070 225.262,239.350 225.528,238.800 225.833 M276.546 225.802 C 277.176 226.131,277.896 226.399,278.146 226.398 C 278.396 226.396,278.084 226.126,277.454 225.798 C 276.824 225.469,276.104 225.201,275.854 225.202 C 275.604 225.204,275.916 225.474,276.546 225.802 M308.400 226.925 C 308.400 226.994,308.985 227.579,309.700 228.225 L 311.000 229.400 309.825 228.100 C 308.730 226.888,308.400 226.616,308.400 226.925 M256.654 228.429 C 256.074 228.885,255.600 229.416,255.600 229.610 C 255.600 229.803,256.076 229.520,256.658 228.981 C 257.824 227.901,259.847 227.678,261.326 228.465 C 262.116 228.886,262.147 228.867,261.651 228.265 C 260.849 227.293,257.979 227.387,256.654 228.429 M311.895 230.600 C 313.586 232.948,314.968 234.352,313.551 232.282 C 312.829 231.227,311.967 230.147,311.635 229.882 C 311.303 229.617,311.420 229.940,311.895 230.600 M286.000 230.150 C 286.000 230.244,286.641 230.699,287.424 231.161 C 288.207 231.623,288.736 231.820,288.599 231.598 C 288.331 231.164,286.000 229.866,286.000 230.150 M262.812 238.000 C 262.812 243.182,262.942 245.599,263.200 245.200 C 263.413 244.870,263.588 241.630,263.588 238.000 C 263.588 234.370,263.413 231.130,263.200 230.800 C 262.942 230.401,262.812 232.818,262.812 238.000 M202.344 232.300 C 201.193 233.689,200.706 234.400,200.904 234.400 C 201.014 234.400,201.586 233.770,202.173 233.000 C 203.263 231.571,203.395 231.032,202.344 232.300 M224.438 233.618 C 223.249 234.488,222.444 235.200,222.649 235.200 C 223.108 235.200,224.665 234.137,225.996 232.914 C 227.465 231.566,226.883 231.829,224.438 233.618 M292.013 234.300 C 292.019 234.465,292.514 234.946,293.113 235.368 L 294.200 236.136 293.230 235.068 C 292.211 233.946,291.992 233.807,292.013 234.300 M115.100 235.100 C 120.435 235.163,129.165 235.163,134.500 235.100 C 139.835 235.037,135.470 234.985,124.800 234.985 C 114.130 234.985,109.765 235.037,115.100 235.100 M174.072 235.096 C 181.361 235.196,182.774 235.311,182.931 235.815 C 183.058 236.223,183.098 236.188,183.054 235.708 C 182.994 235.055,182.312 234.999,174.195 234.989 L 165.400 234.977 174.072 235.096 M145.272 236.197 C 145.749 236.745,146.211 237.123,146.298 237.035 C 146.510 236.824,145.108 235.200,144.714 235.200 C 144.544 235.200,144.795 235.649,145.272 236.197 M219.785 237.700 L 217.800 239.800 219.992 237.800 C 221.197 236.700,222.262 235.755,222.358 235.700 C 222.455 235.645,222.362 235.600,222.152 235.600 C 221.942 235.600,220.877 236.545,219.785 237.700 M103.067 237.067 C 102.697 237.437,102.729 264.309,103.100 264.538 C 103.265 264.640,103.400 258.441,103.400 250.762 C 103.400 243.083,103.385 236.800,103.367 236.800 C 103.348 236.800,103.213 236.920,103.067 237.067 M162.667 237.067 C 162.297 237.437,162.329 264.309,162.700 264.538 C 162.865 264.640,163.000 258.441,163.000 250.762 C 163.000 243.083,162.985 236.800,162.967 236.800 C 162.948 236.800,162.813 236.920,162.667 237.067 M181.252 239.156 C 180.600 240.504,180.215 241.514,180.398 241.401 C 180.861 241.115,182.832 237.099,182.616 236.882 C 182.519 236.785,181.905 237.809,181.252 239.156 M197.600 238.800 C 197.130 239.460,196.836 240.000,196.946 240.000 C 197.056 240.000,197.530 239.460,198.000 238.800 C 198.470 238.140,198.764 237.600,198.654 237.600 C 198.544 237.600,198.070 238.140,197.600 238.800 M298.623 240.378 C 300.708 242.969,301.999 244.401,301.990 244.114 C 301.985 243.941,301.040 242.800,299.890 241.578 C 298.741 240.355,298.170 239.815,298.623 240.378 M195.326 242.500 C 194.619 243.599,193.993 244.927,194.121 245.055 C 194.196 245.129,194.640 244.472,195.108 243.595 C 195.903 242.107,196.047 241.378,195.326 242.500 M321.053 243.985 C 321.382 244.645,321.807 245.281,321.998 245.399 C 322.189 245.517,322.076 245.074,321.747 244.415 C 321.418 243.755,320.993 243.119,320.802 243.001 C 320.611 242.883,320.724 243.326,321.053 243.985 M213.663 244.400 C 213.175 245.060,212.923 245.600,213.102 245.600 C 213.281 245.600,213.746 245.060,214.136 244.400 C 214.526 243.740,214.779 243.200,214.698 243.200 C 214.617 243.200,214.151 243.740,213.663 244.400 M178.846 244.276 C 178.821 244.758,178.620 245.264,178.400 245.400 C 178.180 245.536,178.001 245.952,178.002 246.324 C 178.004 246.744,178.237 246.556,178.617 245.825 C 178.954 245.179,179.154 244.369,179.061 244.025 C 178.955 243.631,178.876 243.724,178.846 244.276 M211.600 247.200 C 211.130 247.860,210.893 248.399,211.073 248.397 C 211.253 248.396,211.707 247.856,212.081 247.197 C 212.958 245.657,212.698 245.658,211.600 247.200 M255.632 246.273 C 255.515 248.017,260.214 249.029,261.900 247.623 C 263.165 246.567,263.027 246.163,261.746 247.171 C 260.107 248.460,256.522 247.934,255.868 246.308 C 255.726 245.957,255.653 245.946,255.632 246.273 M192.670 247.410 C 192.521 247.845,192.291 248.470,192.158 248.800 C 192.026 249.130,192.219 248.990,192.588 248.490 C 192.958 247.989,193.188 247.364,193.100 247.100 C 193.010 246.831,192.822 246.967,192.670 247.410 M304.388 247.923 C 304.882 248.651,305.376 249.157,305.484 249.049 C 305.592 248.941,305.188 248.346,304.584 247.726 L 303.488 246.600 304.388 247.923 M323.292 248.395 C 323.760 249.272,324.195 249.938,324.259 249.875 C 324.464 249.669,323.044 246.800,322.737 246.800 C 322.574 246.800,322.823 247.518,323.292 248.395 M208.892 251.605 C 208.423 252.482,208.174 253.200,208.337 253.200 C 208.644 253.200,210.064 250.331,209.859 250.125 C 209.795 250.062,209.360 250.728,208.892 251.605 M175.932 252.000 C 175.806 252.550,175.578 253.360,175.426 253.800 C 175.274 254.240,175.442 254.095,175.799 253.477 C 176.157 252.859,176.385 252.049,176.305 251.677 C 176.202 251.194,176.095 251.287,175.932 252.000 M190.466 252.797 C 190.173 253.458,190.024 254.225,190.135 254.500 C 190.246 254.775,190.351 254.631,190.368 254.180 C 190.386 253.729,190.600 253.160,190.845 252.915 C 191.090 252.670,191.224 252.273,191.144 252.032 C 191.064 251.791,190.758 252.135,190.466 252.797 M325.200 252.878 C 325.200 253.004,325.463 253.714,325.784 254.454 C 326.189 255.386,326.370 255.554,326.372 255.000 C 326.373 254.560,326.110 253.851,325.787 253.424 C 325.464 252.996,325.200 252.751,325.200 252.878 M290.446 254.467 C 290.421 255.053,290.175 255.624,289.900 255.735 C 289.508 255.893,289.511 255.944,289.913 255.968 C 290.547 256.008,290.930 255.087,290.680 254.123 C 290.554 253.636,290.478 253.748,290.446 254.467 M207.221 255.101 C 206.938 255.705,206.519 256.560,206.289 257.000 C 205.916 257.715,205.942 257.742,206.536 257.251 C 206.901 256.949,207.200 256.400,207.200 256.031 C 207.200 255.662,207.413 255.147,207.673 254.887 C 207.934 254.626,208.054 254.321,207.941 254.207 C 207.827 254.094,207.503 254.496,207.221 255.101 M281.829 256.811 C 279.904 258.268,280.204 258.380,282.272 256.977 C 284.072 255.755,284.246 255.597,283.767 255.611 C 283.565 255.617,282.693 256.157,281.829 256.811 M287.089 260.222 C 285.830 262.080,284.877 263.600,284.972 263.600 C 285.256 263.600,289.701 257.167,289.533 256.999 C 289.448 256.914,288.348 258.365,287.089 260.222 M173.700 260.459 C 173.013 263.432,173.118 264.301,173.840 261.616 C 174.162 260.415,174.375 259.177,174.313 258.864 C 174.251 258.551,173.975 259.269,173.700 260.459 M187.917 260.800 C 187.774 261.570,187.552 262.740,187.423 263.400 C 187.244 264.321,187.334 264.228,187.810 263.000 C 188.151 262.120,188.373 260.950,188.303 260.400 C 188.195 259.546,188.138 259.604,187.917 260.800 M276.200 261.045 C 275.760 261.386,275.051 261.916,274.624 262.223 C 274.197 262.530,273.927 262.859,274.024 262.954 C 274.121 263.048,274.920 262.515,275.800 261.769 C 277.408 260.405,277.694 259.888,276.200 261.045 M204.440 262.279 C 204.152 263.153,204.004 264.212,204.111 264.634 C 204.250 265.175,204.321 265.069,204.354 264.274 C 204.379 263.654,204.592 262.789,204.826 262.352 C 205.060 261.914,205.187 261.361,205.108 261.124 C 205.029 260.886,204.728 261.406,204.440 262.279 M328.093 262.400 C 328.093 263.170,328.175 263.485,328.276 263.100 C 328.376 262.715,328.376 262.085,328.276 261.700 C 328.175 261.315,328.093 261.630,328.093 262.400 M311.206 262.633 C 311.209 263.055,311.395 263.670,311.618 264.000 C 311.915 264.438,311.952 264.276,311.756 263.400 C 311.427 261.929,311.198 261.610,311.206 262.633 M328.640 265.066 C 329.008 266.599,329.200 266.744,329.200 265.490 C 329.200 264.917,329.013 264.332,328.784 264.190 C 328.511 264.021,328.462 264.323,328.640 265.066 M145.433 265.274 L 144.785 266.200 124.893 266.407 L 105.000 266.615 124.678 266.707 L 144.355 266.800 145.478 265.834 C 146.095 265.303,146.483 264.751,146.341 264.608 C 146.198 264.465,145.790 264.765,145.433 265.274 M312.064 265.800 C 312.049 266.460,312.300 267.540,312.622 268.200 C 313.118 269.215,313.172 269.246,312.969 268.400 C 312.838 267.850,312.587 266.770,312.411 266.000 C 312.096 264.617,312.092 264.615,312.064 265.800 M163.944 265.968 C 165.567 267.397,173.215 267.140,173.188 265.657 C 173.177 265.074,173.130 265.079,172.768 265.700 C 172.202 266.671,165.483 266.723,163.989 265.768 L 163.000 265.136 163.944 265.968 M243.862 265.931 C 243.179 266.686,242.969 268.210,243.502 268.539 C 243.668 268.642,243.803 268.161,243.802 267.471 C 243.800 266.392,243.968 266.186,245.000 265.997 C 245.985 265.817,246.069 265.726,245.467 265.489 C 244.521 265.116,244.626 265.087,243.862 265.931 M269.049 266.800 C 267.984 267.680,267.267 268.392,267.456 268.383 C 267.826 268.365,271.538 265.203,271.193 265.201 C 271.079 265.200,270.114 265.920,269.049 266.800 M247.000 266.285 C 247.440 266.391,247.971 266.640,248.180 266.839 C 248.389 267.037,248.738 267.200,248.956 267.200 C 249.175 267.200,249.004 266.936,248.576 266.613 C 248.149 266.290,247.440 266.041,247.000 266.059 L 246.200 266.093 247.000 266.285 M281.141 268.100 C 280.412 269.035,280.135 269.546,280.526 269.236 C 281.303 268.619,282.973 266.400,282.661 266.400 C 282.554 266.400,281.871 267.165,281.141 268.100 M186.667 267.467 C 186.520 267.613,186.411 268.108,186.425 268.567 C 186.449 269.333,186.482 269.323,186.834 268.442 C 187.226 267.463,187.144 266.989,186.667 267.467 M250.833 268.157 C 251.336 268.630,254.022 269.959,253.822 269.635 C 253.691 269.424,253.020 268.969,252.331 268.625 C 251.131 268.027,250.479 267.823,250.833 268.157 M202.854 270.200 C 202.819 270.640,202.689 271.450,202.567 272.000 C 202.375 272.863,202.407 272.903,202.798 272.290 C 203.047 271.899,203.177 271.089,203.086 270.490 C 202.978 269.779,202.897 269.679,202.854 270.200 M329.438 271.000 C 329.770 272.984,330.002 273.304,329.994 271.767 C 329.991 271.125,329.804 270.330,329.579 270.000 C 329.286 269.570,329.246 269.854,329.438 271.000 M244.025 270.200 C 244.025 270.420,244.290 270.949,244.613 271.376 C 244.936 271.804,245.200 271.973,245.200 271.753 C 245.200 271.533,244.936 271.004,244.613 270.576 C 244.290 270.149,244.025 269.980,244.025 270.200 M254.400 270.146 C 254.400 270.256,254.940 270.730,255.600 271.200 C 256.260 271.670,256.800 271.964,256.800 271.854 C 256.800 271.744,256.260 271.270,255.600 270.800 C 254.940 270.330,254.400 270.036,254.400 270.146 M263.662 271.240 C 261.806 272.927,262.242 273.031,264.167 271.360 C 265.028 270.612,265.568 270.005,265.367 270.012 C 265.165 270.018,264.398 270.571,263.662 271.240 M277.002 273.300 C 275.942 274.675,275.433 275.484,275.871 275.098 C 276.699 274.368,279.370 270.800,279.089 270.800 C 279.001 270.800,278.061 271.925,277.002 273.300 M186.162 278.200 C 186.162 281.720,186.224 283.106,186.298 281.281 C 186.372 279.456,186.372 276.576,186.297 274.881 C 186.222 273.186,186.161 274.680,186.162 278.200 M257.520 272.500 C 258.784 274.010,260.272 274.435,261.258 273.566 L 262.200 272.736 261.234 273.352 C 260.264 273.970,258.000 273.244,258.000 272.314 C 258.000 272.141,257.798 272.000,257.551 272.000 C 257.235 272.000,257.226 272.149,257.520 272.500 M313.170 277.663 C 312.996 283.679,313.309 285.350,313.704 280.513 C 313.826 279.021,313.794 276.450,313.633 274.800 C 313.358 271.993,313.328 272.178,313.170 277.663 M219.400 273.983 C 223.580 274.102,227.225 274.346,227.500 274.524 C 227.775 274.702,228.000 274.678,228.000 274.470 C 228.000 273.766,226.212 273.611,219.000 273.688 L 211.800 273.766 219.400 273.983 M202.148 278.400 C 202.148 280.710,202.214 281.655,202.295 280.500 C 202.376 279.345,202.376 277.455,202.295 276.300 C 202.214 275.145,202.148 276.090,202.148 278.400 M209.272 277.838 C 209.213 279.512,209.361 280.012,210.100 280.638 C 210.994 281.395,210.995 281.394,210.326 280.597 C 209.955 280.156,209.583 278.896,209.498 277.797 L 209.344 275.800 209.272 277.838 M229.200 277.800 C 229.200 278.663,229.361 279.147,229.600 279.000 C 229.820 278.864,230.000 278.324,230.000 277.800 C 230.000 277.276,229.820 276.736,229.600 276.600 C 229.361 276.453,229.200 276.937,229.200 277.800 M273.200 277.800 C 272.683 278.350,272.427 278.794,272.630 278.787 C 272.972 278.776,274.621 276.800,274.288 276.800 C 274.206 276.800,273.717 277.250,273.200 277.800 M248.800 278.264 C 248.800 278.482,249.295 279.097,249.900 279.630 L 251.000 280.600 250.000 279.400 C 249.450 278.740,248.955 278.125,248.900 278.033 C 248.845 277.942,248.800 278.045,248.800 278.264 M271.200 280.200 C 270.683 280.750,270.427 281.194,270.630 281.187 C 270.972 281.176,272.621 279.200,272.288 279.200 C 272.206 279.200,271.717 279.650,271.200 280.200 M228.800 280.351 C 228.800 281.333,226.280 281.630,218.913 281.517 C 214.712 281.453,211.359 281.535,211.461 281.700 C 211.848 282.323,226.755 282.044,228.020 281.390 C 229.026 280.869,229.639 280.000,229.000 280.000 C 228.890 280.000,228.800 280.158,228.800 280.351 M250.800 281.017 C 250.800 281.137,251.275 281.722,251.856 282.317 L 252.912 283.400 252.029 282.100 C 251.194 280.872,250.800 280.525,250.800 281.017 M266.979 284.973 C 265.729 286.388,264.142 287.824,263.453 288.164 C 262.764 288.504,262.442 288.786,262.738 288.791 C 263.620 288.806,265.385 287.357,267.598 284.802 C 268.743 283.481,269.583 282.400,269.465 282.400 C 269.348 282.400,268.229 283.558,266.979 284.973 M202.638 285.000 C 202.970 286.984,203.202 287.304,203.194 285.767 C 203.191 285.125,203.004 284.330,202.779 284.000 C 202.486 283.570,202.446 283.854,202.638 285.000 M329.450 284.850 C 329.112 286.541,329.136 287.200,329.535 287.200 C 329.719 287.200,329.901 286.390,329.938 285.400 C 330.018 283.305,329.807 283.067,329.450 284.850 M254.651 285.871 C 255.756 287.477,257.837 289.096,258.258 288.675 C 258.369 288.564,258.092 288.356,257.641 288.213 C 257.191 288.070,256.075 287.109,255.162 286.077 L 253.502 284.200 254.651 285.871 M301.736 285.022 C 301.605 285.364,301.671 286.032,301.882 286.507 C 302.211 287.244,302.262 287.154,302.234 285.886 C 302.197 284.258,302.096 284.083,301.736 285.022 M186.434 287.800 C 186.422 288.240,186.587 288.870,186.800 289.200 C 187.314 289.995,187.314 288.996,186.800 287.800 L 186.456 287.000 186.434 287.800 M332.400 287.603 C 334.921 288.446,336.088 288.754,335.847 288.514 C 335.457 288.124,332.690 287.208,332.000 287.240 C 331.670 287.256,331.850 287.419,332.400 287.603 M63.246 288.200 C 63.253 288.420,63.606 289.320,64.029 290.200 C 64.452 291.080,64.686 291.350,64.549 290.800 C 64.267 289.667,63.225 287.588,63.246 288.200 M172.412 288.800 C 172.412 289.130,172.587 289.670,172.800 290.000 C 173.145 290.533,173.188 290.533,173.188 290.000 C 173.188 289.670,173.013 289.130,172.800 288.800 C 172.455 288.267,172.412 288.267,172.412 288.800 M259.913 289.294 C 260.588 289.619,260.948 289.612,261.293 289.267 C 261.649 288.911,261.432 288.806,260.380 288.827 C 259.084 288.852,259.056 288.881,259.913 289.294 M337.271 290.930 C 337.649 291.810,337.649 292.229,337.274 292.830 C 337.010 293.253,336.955 293.600,337.154 293.600 C 338.069 293.600,338.225 291.640,337.393 290.576 C 336.834 289.860,336.824 289.887,337.271 290.930 M173.309 292.800 C 173.309 293.790,173.387 294.195,173.482 293.700 C 173.578 293.205,173.578 292.395,173.482 291.900 C 173.387 291.405,173.309 291.810,173.309 292.800 M187.405 293.000 C 188.026 296.128,188.307 297.024,188.348 296.000 C 188.370 295.450,188.113 294.280,187.778 293.400 C 187.322 292.204,187.228 292.103,187.405 293.000 M65.988 293.923 C 66.482 294.651,66.976 295.157,67.084 295.049 C 67.192 294.941,66.788 294.346,66.184 293.726 L 65.088 292.600 65.988 293.923 M304.402 293.224 C 304.401 293.566,304.664 294.196,304.987 294.624 C 305.751 295.634,305.759 295.196,305.002 293.746 C 304.674 293.116,304.404 292.881,304.402 293.224 M173.628 295.076 C 173.718 296.115,174.344 296.996,174.372 296.124 C 174.387 295.642,174.220 295.136,174.000 295.000 C 173.780 294.864,173.613 294.898,173.628 295.076 M68.792 297.392 C 69.759 298.377,70.611 299.123,70.685 299.048 C 70.850 298.883,67.599 295.600,67.270 295.600 C 67.140 295.600,67.825 296.406,68.792 297.392 M71.200 299.373 C 71.200 299.468,71.785 299.943,72.500 300.429 L 73.800 301.312 72.717 300.256 C 71.701 299.264,71.200 298.973,71.200 299.373 M307.232 300.424 C 307.214 300.766,307.480 301.396,307.822 301.824 C 308.434 302.588,308.438 302.587,308.076 301.800 C 307.874 301.360,307.608 300.730,307.486 300.400 C 307.293 299.882,307.259 299.885,307.232 300.424 M175.310 302.400 L 175.400 303.800 129.000 304.003 L 82.600 304.205 128.824 304.303 C 179.163 304.409,176.807 304.514,175.762 302.200 L 175.220 301.000 175.310 302.400 M190.061 302.200 C 190.043 302.640,190.286 303.450,190.600 304.000 C 190.963 304.635,191.177 304.773,191.186 304.380 C 191.194 304.039,191.037 303.589,190.839 303.380 C 190.640 303.171,190.391 302.640,190.285 302.200 L 190.093 301.400 190.061 302.200 M80.200 303.600 C 80.336 303.820,80.842 303.987,81.324 303.972 C 82.169 303.945,82.171 303.931,81.400 303.600 C 80.299 303.127,79.908 303.127,80.200 303.600 M209.560 305.800 C 210.234 307.105,210.788 307.828,210.785 307.400 C 210.783 307.180,210.414 306.550,209.964 306.000 C 209.421 305.336,209.285 305.269,209.560 305.800 M309.212 305.600 C 309.212 306.290,309.880 307.470,310.111 307.188 C 310.196 307.085,310.029 306.550,309.739 306.000 C 309.448 305.449,309.212 305.269,309.212 305.600 M322.086 308.060 C 320.703 309.405,319.625 310.558,319.690 310.624 C 319.756 310.689,321.031 309.586,322.524 308.171 C 324.016 306.757,325.094 305.603,324.919 305.608 C 324.744 305.612,323.469 306.715,322.086 308.060 M192.071 307.400 C 192.171 307.620,192.483 308.385,192.765 309.100 C 193.047 309.815,193.438 310.400,193.632 310.400 C 193.827 310.400,193.610 309.725,193.150 308.900 C 192.357 307.478,191.682 306.539,192.071 307.400 M258.505 307.487 C 259.114 307.579,260.014 307.577,260.505 307.482 C 260.997 307.387,260.500 307.311,259.400 307.314 C 258.300 307.317,257.897 307.395,258.505 307.487 M209.400 309.200 C 208.740 309.637,208.380 309.992,208.600 309.988 C 209.001 309.982,211.176 308.423,210.800 308.412 C 210.690 308.408,210.060 308.763,209.400 309.200 M262.800 317.376 C 262.800 322.059,262.948 324.800,263.200 324.800 C 263.452 324.800,263.600 322.141,263.600 317.624 C 263.600 313.271,263.443 310.350,263.200 310.200 C 262.939 310.039,262.800 312.529,262.800 317.376 M204.811 311.820 C 204.047 312.359,203.597 312.799,203.811 312.798 C 204.025 312.797,204.740 312.353,205.400 311.812 C 206.941 310.549,206.605 310.553,204.811 311.820 M194.000 311.272 C 194.000 311.706,195.269 313.996,195.635 314.222 C 195.847 314.352,195.636 313.771,195.167 312.930 C 194.267 311.315,194.000 310.936,194.000 311.272 M314.241 313.267 C 314.355 313.450,314.786 313.600,315.200 313.600 C 315.614 313.600,316.045 313.450,316.159 313.267 C 316.272 313.083,315.841 312.933,315.200 312.933 C 314.559 312.933,314.128 313.083,314.241 313.267 M196.000 315.042 C 196.000 315.785,197.658 316.505,198.147 315.974 C 198.490 315.602,198.473 315.555,198.075 315.781 C 197.773 315.952,197.220 315.780,196.775 315.377 C 196.349 314.992,196.000 314.841,196.000 315.042 M208.956 315.988 C 207.471 316.649,205.590 318.600,205.607 319.462 C 205.610 319.648,205.977 319.232,206.422 318.539 C 207.438 316.952,209.722 315.834,211.795 315.908 C 212.932 315.949,213.220 315.857,212.795 315.589 C 211.932 315.043,210.821 315.158,208.956 315.988 M214.665 316.824 C 215.361 317.270,216.231 318.093,216.597 318.652 C 216.964 319.212,217.373 319.560,217.506 319.427 C 217.814 319.119,214.492 315.998,213.866 316.007 C 213.610 316.010,213.969 316.378,214.665 316.824 M302.976 316.587 C 302.549 316.910,302.414 317.180,302.676 317.187 C 302.938 317.194,303.264 317.020,303.400 316.800 C 303.999 315.831,307.766 316.359,309.409 317.644 L 311.000 318.887 309.506 317.444 C 307.822 315.817,304.560 315.389,302.976 316.587 M299.285 320.413 C 298.587 321.530,298.699 324.842,299.467 325.800 L 300.108 326.600 299.783 325.800 C 299.195 324.353,299.096 321.208,299.618 320.579 C 299.891 320.250,300.037 319.903,299.942 319.809 C 299.847 319.714,299.552 319.986,299.285 320.413 M217.628 320.676 C 217.718 321.715,218.344 322.596,218.372 321.724 C 218.387 321.242,218.220 320.736,218.000 320.600 C 217.780 320.464,217.613 320.498,217.628 320.676 M311.714 322.200 C 311.717 323.300,311.795 323.703,311.887 323.095 C 311.979 322.486,311.977 321.586,311.882 321.095 C 311.787 320.603,311.711 321.100,311.714 322.200 M205.615 324.200 C 205.617 324.420,205.986 325.050,206.436 325.600 C 206.979 326.264,207.115 326.331,206.840 325.800 C 206.166 324.495,205.612 323.772,205.615 324.200 M258.465 327.612 C 258.884 327.857,259.475 327.862,260.065 327.626 C 260.883 327.298,260.799 327.249,259.400 327.238 C 258.180 327.227,257.958 327.316,258.465 327.612 M210.729 328.551 C 211.494 328.771,212.506 328.771,213.271 328.551 C 214.368 328.237,214.193 328.187,212.000 328.187 C 209.807 328.187,209.632 328.237,210.729 328.551 M302.224 328.587 C 303.275 329.382,306.827 329.376,307.824 328.578 C 308.574 327.977,308.570 327.970,307.726 328.378 C 306.617 328.914,302.927 328.930,302.600 328.400 C 302.464 328.180,302.149 328.000,301.900 328.000 C 301.651 328.000,301.796 328.264,302.224 328.587 M236.708 332.790 C 237.207 333.005,237.994 333.822,238.457 334.607 C 238.920 335.392,239.398 335.936,239.518 335.815 C 239.891 335.442,237.357 332.606,236.557 332.500 C 235.983 332.425,236.019 332.495,236.708 332.790 M279.234 334.256 C 277.187 336.582,276.973 339.022,278.590 341.585 C 279.488 343.007,282.139 344.794,282.627 344.306 C 282.736 344.197,282.235 343.866,281.513 343.571 C 277.574 341.960,276.701 337.370,279.731 334.207 C 280.684 333.213,281.329 332.400,281.165 332.400 C 281.002 332.400,280.133 333.235,279.234 334.256 M289.920 334.880 C 290.184 335.144,290.414 335.819,290.432 336.380 C 290.449 336.941,290.557 337.167,290.671 336.883 C 290.979 336.114,290.456 334.400,289.912 334.400 C 289.553 334.400,289.555 334.515,289.920 334.880 M256.176 337.822 C 255.426 338.423,255.430 338.430,256.274 338.022 C 256.754 337.790,257.891 337.600,258.800 337.600 C 259.709 337.600,260.846 337.790,261.326 338.022 C 262.170 338.430,262.174 338.423,261.424 337.822 C 260.973 337.461,259.871 337.200,258.800 337.200 C 257.729 337.200,256.627 337.461,256.176 337.822 M263.475 339.554 C 264.094 340.189,264.676 340.638,264.768 340.553 C 265.001 340.337,263.144 338.400,262.705 338.400 C 262.510 338.400,262.856 338.919,263.475 339.554 M290.454 339.162 C 290.387 340.348,288.617 342.735,287.458 343.203 C 286.961 343.404,286.852 343.554,287.200 343.561 C 288.574 343.589,290.959 340.514,290.679 339.076 C 290.519 338.251,290.506 338.256,290.454 339.162 M226.800 339.907 C 226.800 340.664,229.910 343.601,230.700 343.591 C 231.120 343.585,230.869 343.320,230.071 342.927 C 229.340 342.567,228.305 341.629,227.771 340.843 C 227.237 340.057,226.800 339.636,226.800 339.907 M238.457 341.393 C 237.994 342.178,237.207 342.995,236.708 343.210 C 236.019 343.505,235.983 343.575,236.557 343.500 C 237.357 343.394,239.891 340.558,239.518 340.185 C 239.398 340.064,238.920 340.608,238.457 341.393 M252.178 342.579 C 252.035 343.337,252.075 344.426,252.266 344.999 C 252.539 345.817,252.613 345.521,252.613 343.620 C 252.613 340.839,252.538 340.658,252.178 342.579 M265.040 342.266 C 265.408 343.799,265.600 343.944,265.600 342.690 C 265.600 342.117,265.413 341.532,265.184 341.390 C 264.911 341.221,264.862 341.523,265.040 342.266 M231.862 344.100 C 231.964 344.265,232.746 344.400,233.600 344.400 C 234.454 344.400,235.236 344.265,235.338 344.100 C 235.440 343.935,234.658 343.800,233.600 343.800 C 232.542 343.800,231.760 343.935,231.862 344.100 M252.800 346.738 C 252.800 346.924,253.188 347.419,253.662 347.838 L 254.524 348.600 253.816 347.500 C 253.086 346.366,252.800 346.151,252.800 346.738 M259.600 349.600 L 258.600 349.920 259.600 349.954 C 260.150 349.973,260.870 349.813,261.200 349.600 C 261.964 349.106,261.142 349.106,259.600 349.600 " stroke="none" fill="#c6cfd5" fill-rule="evenodd"></path></g></svg>
