<?xml version="1.0" standalone="no"?>
<!DOCTYPE svg PUBLIC "-//W3C//DTD SVG 20010904//EN"
 "http://www.w3.org/TR/2001/REC-SVG-20010904/DTD/svg10.dtd">
<svg version="1.0" xmlns="http://www.w3.org/2000/svg"
 width="512.000000pt" height="512.000000pt" viewBox="0 0 512.000000 512.000000"
 preserveAspectRatio="xMidYMid meet">

<g transform="translate(0.000000,512.000000) scale(0.100000,-0.100000)"
fill="#000000" stroke="none">
<path d="M1105 4135 c-23 -22 -25 -32 -25 -120 l0 -95 -216 0 c-141 0 -231 -4
-258 -12 -55 -16 -138 -99 -154 -154 -17 -60 -17 -2408 0 -2468 16 -55 99
-138 154 -154 32 -9 456 -12 1836 -12 2026 0 1853 -7 1931 80 24 26 49 66 55
88 8 27 12 157 12 428 l0 389 111 80 c61 43 115 87 120 96 16 31 10 69 -16 94
-36 37 -71 32 -146 -20 l-64 -46 -5 718 c-4 535 -8 725 -17 745 -7 16 -31 48
-53 72 -64 69 -95 76 -352 76 l-218 0 0 95 c0 88 -2 98 -25 120 -15 16 -36 25
-55 25 -19 0 -40 -9 -55 -25 -23 -22 -25 -32 -25 -120 l0 -95 -560 0 -560 0 0
95 c0 88 -2 98 -25 120 -32 33 -78 33 -110 0 -23 -22 -25 -32 -25 -120 l0 -95
-560 0 -560 0 0 95 c0 88 -2 98 -25 120 -15 16 -36 25 -55 25 -19 0 -40 -9
-55 -25z m-25 -430 c0 -67 29 -105 80 -105 51 0 80 38 80 105 l0 55 560 0 560
0 0 -55 c0 -67 29 -105 80 -105 51 0 80 38 80 105 l0 55 560 0 560 0 0 -55 c0
-67 29 -105 80 -105 51 0 80 38 80 105 l0 55 215 0 c216 0 216 0 240 -25 24
-23 25 -29 25 -160 l0 -135 -1840 0 -1840 0 0 135 c0 131 1 137 25 160 24 25
24 25 240 25 l215 0 0 -55z m3200 -972 l0 -548 -163 -117 c-89 -64 -213 -154
-275 -199 l-113 -82 -68 67 c-79 76 -113 85 -156 41 -47 -46 -36 -76 63 -177
94 -97 132 -123 167 -114 12 3 87 52 165 109 l142 103 28 -28 c31 -31 50 -34
83 -16 48 25 61 74 31 116 -9 13 -14 24 -13 26 2 1 28 19 57 40 l52 38 0 -332
0 -331 -25 -24 -24 -25 -1791 0 -1791 0 -24 25 -25 24 0 976 0 975 1840 0
1840 0 0 -547z"/>
<path d="M865 3015 l-25 -24 0 -271 0 -271 25 -24 24 -25 271 0 271 0 24 25
25 24 0 271 0 271 -25 24 -24 25 -271 0 -271 0 -24 -25z m455 -295 l0 -160
-160 0 -160 0 0 160 0 160 160 0 160 0 0 -160z"/>
<path d="M2145 3015 l-25 -24 0 -271 0 -271 25 -24 24 -25 271 0 271 0 24 25
25 24 0 271 0 271 -25 24 -24 25 -271 0 -271 0 -24 -25z m455 -295 l0 -160
-160 0 -160 0 0 160 0 160 160 0 160 0 0 -160z"/>
<path d="M3425 3015 l-25 -24 0 -271 0 -271 25 -24 24 -25 271 0 271 0 24 25
25 24 0 271 0 271 -25 24 -24 25 -271 0 -271 0 -24 -25z m455 -295 l0 -160
-160 0 -160 0 0 160 0 160 160 0 160 0 0 -160z"/>
<path d="M3699 2291 c-16 -16 -29 -39 -29 -51 0 -30 53 -80 85 -80 32 0 85 50
85 80 0 30 -53 80 -85 80 -16 0 -38 -12 -56 -29z"/>
<path d="M3468 2240 c-25 -26 -29 -36 -24 -63 13 -65 85 -89 131 -42 39 38 27
102 -22 124 -37 17 -52 14 -85 -19z"/>
<path d="M3929 2220 c-29 -17 -43 -66 -29 -100 34 -82 150 -56 150 33 0 59
-69 97 -121 67z"/>
<path d="M865 2135 l-25 -24 0 -271 0 -271 25 -24 24 -25 271 0 271 0 24 25
25 24 0 271 0 271 -25 24 -24 25 -271 0 -271 0 -24 -25z m455 -295 l0 -160
-160 0 -160 0 0 160 0 160 160 0 160 0 0 -160z"/>
<path d="M2145 2135 l-25 -24 0 -271 0 -271 25 -24 24 -25 271 0 271 0 24 25
25 24 0 271 0 271 -25 24 -24 25 -271 0 -271 0 -24 -25z m455 -295 l0 -160
-160 0 -160 0 0 160 0 160 160 0 160 0 0 -160z"/>
<path d="M3309 2071 c-36 -36 -37 -73 -4 -106 49 -49 135 -15 135 54 0 20 -9
37 -31 55 -40 34 -64 33 -100 -3z"/>
<path d="M3277 1848 c-24 -19 -38 -64 -28 -91 13 -34 39 -51 78 -51 44 0 73
32 73 78 0 60 -76 99 -123 64z"/>
<path d="M3991 1664 c-27 -35 -26 -66 2 -100 17 -20 33 -27 57 -27 24 0 40 7
57 27 28 34 29 65 2 100 -16 20 -29 26 -59 26 -30 0 -43 -6 -59 -26z"/>
<path d="M3365 1625 c-33 -33 -32 -70 4 -106 35 -34 68 -37 105 -8 20 16 26
29 26 58 0 74 -83 109 -135 56z"/>
<path d="M3835 1538 c-72 -39 -51 -148 29 -148 34 0 82 24 90 45 29 77 -47
143 -119 103z"/>
<path d="M3575 1505 c-67 -66 14 -168 98 -123 78 41 51 148 -38 148 -25 0 -44
-8 -60 -25z"/>
</g>
</svg>
